<svg xmlns="http://www.w3.org/2000/svg">
    <symbol id="arrow" viewBox="0 0 17 14">
        <path d="M10 0L9 1l5.3 5.3H0v1.4h14.3L9 13l1 1 7-7" fill="currentColor" fill-rule="evenodd"/>
    </symbol>

    <symbol id="arrow2" viewBox="0 0 8 12">
        <path fill="currentColor" d="M.6 10.24L6.23 4.6 7.66 6 2 11.66z" fill-rule="evenodd"/>
        <path fill="currentColor" d="M6.24 7.4L.6 1.77 2 .34 7.66 6z" fill-rule="evenodd"/>
    </symbol>

    <symbol id="check" viewBox="0 0 20 20">
        <path d="M10 20C4.5 20 0 15.5 0 10S4.5 0 10 0s10 4.5 10 10-4.5 10-10 10zM6.8 8.6L5.2 10l4 4.4 5.7-5.7-1.5-1.4-4.3 4.2-2.4-3z" fill="currentColor" fill-rule="evenodd"/>
    </symbol>

    <symbol id="cube" viewBox="0 0 115 134">
        <path fill="currentColor" class="st0" d="M58 1.4L1.5 34.2v65.5L58 132.4 115 99.7V34.2L58 1.4zm-55.5 97V34.7L58 2.8l55.6 32v63.5L58 66.3l-55.5 32zM58 131L3 99.3l55-31.7 55 31.7L58 131z"/>
    </symbol>

    <symbol id="facebook" viewBox="0 0 9 19">
        <path fill="currentColor" d="M5.93 6.15V4.18c0-.74.5-.9.86-.9h2.15V0H5.97C2.67 0 1.9 2.43 1.9 3.98v2.17H0V9.5h1.9V19h4.03V9.5h2.72L9 6.16H5.93z" fill-rule="evenodd"/>
    </symbol>

    <symbol id="github" viewBox="0 0 21 21">
        <path fill="currentColor" transform="translate(-71)" fill-rule="evenodd" d="M81.5 0C75.7 0 71 4.82 71 10.77c0 4.75 3 8.8 7.18 10.2.53.1.72-.22.72-.5 0-.26 0-.94-.02-1.84-2.92.65-3.53-1.44-3.53-1.44-.48-1.26-1.17-1.6-1.17-1.6-.95-.65.07-.64.07-.64 1.06.08 1.6 1.1 1.6 1.1.95 1.65 2.47 1.18 3.07.9.1-.7.36-1.17.66-1.44-2.33-.27-4.78-1.2-4.78-5.32 0-1.17.4-2.13 1.08-2.9-.1-.26-.47-1.35.1-2.83 0 0 .9-.3 2.9 1.1.83-.24 1.73-.36 2.62-.36.9 0 1.8.13 2.63.37 2-1.4 2.88-1.1 2.88-1.1.6 1.48.23 2.57.12 2.84.67.77 1.08 1.73 1.08 2.9 0 4.14-2.46 5.05-4.8 5.32.38.33.72.98.72 2l-.02 2.94c0 .3.2.63.73.52C89 19.55 92 15.52 92 10.78 92 4.8 87.3 0 81.5 0"/>
    </symbol>

    <symbol id="linkedin" viewBox="0 0 44 40">
        <path d="M44 40h-9.7V26c0-3.7-1.5-6.3-5-6.3-2.4 0-4 1.7-4.5 3.4-.3.7-.2 1.5-.2 2.3V40H15V12.8h9.6V17c.5-1.8 3.6-4.4 8.5-4.4 6.2 0 11 4 11 12.3v15zM5.2 9.4C2 9.4 0 7.4 0 4.7S2 0 5.2 0s5 2 5.2 4.7c0 2.6-2 4.7-5.2 4.7zm-4 3.4h8.5V40H1V12.8z" fill="currentColor" fill-rule="evenodd"/>
    </symbol>

    <symbol id="load" viewBox="0 0 12 17">
        <path fill="currentColor" fill-rule="evenodd" d="M2.77 7.02l-1 1 4.25 4.25 4.25-4.25-1-1-2.54 2.54V.23H5.3v9.33M0 15h12v2H0z"/>
    </symbol>

    <symbol id="logo" viewBox="0 0 135 44">
        <g fill="#FFF" fill-rule="evenodd">
            <path d="M16 20.4H15c-.2 0-.3 0-.3.3V30s0 .2.3.2H16c.2 0 .4 0 .4-.3v-4.4L20 30c0 .2.2.2.3.2H22s.3-.3 0-.5L18.3 25l3.7-4c0-.3 0-.6-.4-.6h-1.4-.3l-3.6 4v-3.7c0-.2-.2-.3-.3-.3M35 20.4h-1.4s-.3 0-.3.3v5.8c0 2 1.7 4 4 4 2.2 0 4-2 4-4v-5.8c0-.2-.2-.3-.4-.3h-1.4c-.2 0-.3 0-.3.3v5.7c0 1.2-.8 2-2 2-1.3 0-2-.8-2-2v-5.7c0-.2-.2-.3-.4-.3M59.4 20.6l-.3-.2h-5.8s-.3 0-.3.3v1c0 .3 0 .4.2.4h3.5l-4 7.7v.5h5.7c.2 0 .3-.3.3-.3l.4-1.2c0-.2 0-.3-.2-.3h-3.6l4.2-7.7v-.2z"/>
            <path d="M79.8 22.2l4.2-7.5h-3.5l-.3-.3.4-1.2s0-.3.3-.3h5.4s.3 0 .3.2v.2L82.5 21H86c.3 0 .4.2.4.3v1.2s0 .3-.3.3h-6l-.2-.3v-.3zm18.4-9s0-.3.3-.3h1.3s.2 0 .2.2v8h3.9v1.3s-.2.3-.4.3h-5c-.3 0-.4-.2-.4-.3v-9.3zm17 0s0-.3.3-.3h5.7c.2 0 .3 0 .3.2v1.2s0 .2-.3.2H117V17h3.5s.3 0 .3.2v1.2l-.3.2H117V21h4.2c.2 0 .3.2.3.3v1.2s0 .3-.3.3h-5.7c-.2 0-.3-.2-.3-.3v-9.3zm19.6 23.5V0H82.6c-4 0-7.5 2.5-8.8 6.3l-.2.8H0V44h66.7l1.8-5-2.6-.3-1 2.8H2.5V9.5h70.2l-9 27.2h71z"/>
        </g>
    </symbol>

    <symbol id="menu" viewBox="0 0 24 19">
        <path fill="currentColor" fill-rule="evenodd" d="M0 0h18v3H0zM0 8h24v3H0zM0 16h12v3H0z"/>
    </symbol>

    <symbol id="quote" viewBox="0 0 33 26">
        <path fill="currentColor" d="M13.7 25.5H0V14.2L4.2 0h7.2L9 12.8h4.7v12.7zm19 0H19.2V14.2L23.4 0h7.2l-2.3 12.8h4.6v12.7z"/>
    </symbol>

    <symbol id="twitter" viewBox="0 0 18 15">
        <path d="M18 1.78c-.66.3-1.37.5-2.12.6.76-.48 1.35-1.22 1.62-2.1-.7.43-1.5.75-2.34.92-.68-.74-1.64-1.2-2.7-1.2-2.04 0-3.7 1.7-3.7 3.8 0 .28.04.57.1.85C5.8 4.5 3.1 2.98 1.27.7c-.32.55-.5 1.2-.5 1.9 0 1.3.65 2.47 1.64 3.15-.6-.02-1.18-.2-1.68-.47v.04C.72 7.16 2 8.7 3.7 9.04c-.32.08-.65.13-1 .13-.22 0-.46-.02-.68-.07.47 1.5 1.83 2.6 3.45 2.63-1.27 1.02-2.86 1.62-4.6 1.62-.3 0-.58-.02-.87-.05C1.63 14.37 3.58 15 5.66 15c6.8 0 10.5-5.77 10.5-10.77v-.5c.72-.53 1.35-1.2 1.84-1.95" fill="currentColor" fill-rule="evenodd"/>
    </symbol>

    <symbol id="youtube" viewBox="0 0 48 34">
        <path d="M19 23.3V9.7l13 6.8-13 6.8zm28.5-16s-.4-3.3-2-4.8c-1.7-2-3.8-2-4.7-2C34 0 24 0 24 0S14 0 7.2.5c-1 0-3 0-4.8 2C1 4 .4 7.3.4 7.3s-.4 4-.4 8v3.5c0 4 .5 7.8.5 7.8s.4 3.4 2 4.8c1.7 2 4 2 5.2 2 3.8.5 16.3.6 16.3.6s10 0 16.8-.5c1 0 3 0 4.8-2 1.5-1.5 2-5 2-5s.4-3.8.4-7.7v-3.6c0-4-.5-8-.5-8z" fill="currentColor" fill-rule="evenodd"/>
    </symbol>
</svg>
