<?xml version="1.0" encoding="UTF-8"?>
<svg xmlns="http://www.w3.org/2000/svg" xmlns:xlink="http://www.w3.org/1999/xlink" width="353pt" height="300pt" viewBox="0 0 353 300" version="1.1">
<g id="surface1">
<path style=" stroke:none;fill-rule:nonzero;fill:rgb(0%,0%,0%);fill-opacity:1;" d="M 241.839844 167.847656 L 263.480469 167.847656 L 263.480469 186.183594 L 241.804688 186.183594 L 241.804688 167.847656 Z M 241.839844 167.847656 "/>
<path style=" stroke:none;fill-rule:nonzero;fill:rgb(0%,0%,0%);fill-opacity:1;" d="M 205.738281 247.242188 L 227.410156 247.242188 L 227.410156 265.550781 L 205.738281 265.550781 Z M 205.738281 247.242188 "/>
<path style=" stroke:none;fill-rule:nonzero;fill:rgb(0%,0%,0%);fill-opacity:1;" d="M 205.738281 167.847656 L 227.410156 167.847656 L 227.410156 186.183594 L 205.738281 186.183594 Z M 205.738281 167.847656 "/>
<path style=" stroke:none;fill-rule:nonzero;fill:rgb(0%,0%,0%);fill-opacity:1;" d="M 39.648438 222.808594 L 314.023438 222.808594 L 314.023438 228.910156 L 39.648438 228.910156 Z M 39.648438 222.808594 "/>
<path style=" stroke:none;fill-rule:nonzero;fill:rgb(0%,0%,0%);fill-opacity:1;" d="M 241.839844 247.242188 L 263.480469 247.242188 L 263.480469 265.550781 L 241.804688 265.550781 L 241.804688 247.242188 Z M 241.839844 247.242188 "/>
<path style=" stroke:none;fill-rule:nonzero;fill:rgb(0%,0%,0%);fill-opacity:1;" d="M 277.921875 247.242188 L 299.59375 247.242188 L 299.59375 265.550781 L 277.921875 265.550781 Z M 277.921875 247.242188 "/>
<path style=" stroke:none;fill-rule:nonzero;fill:rgb(0%,0%,0%);fill-opacity:1;" d="M 277.921875 88.464844 L 299.59375 88.464844 L 299.59375 106.769531 L 277.921875 106.769531 Z M 277.921875 88.464844 "/>
<path style=" stroke:none;fill-rule:nonzero;fill:rgb(0%,0%,0%);fill-opacity:1;" d="M 277.921875 167.847656 L 299.59375 167.847656 L 299.59375 186.183594 L 277.921875 186.183594 Z M 277.921875 167.847656 "/>
<path style=" stroke:none;fill-rule:nonzero;fill:rgb(0%,0%,0%);fill-opacity:1;" d="M 299.59375 2.996094 L 54.078125 2.996094 L 17.96875 45.726562 L 17.96875 296.085938 L 335.675781 296.085938 L 335.675781 45.726562 Z M 321.246094 283.878906 L 32.429688 283.878906 L 32.429688 216.714844 L 321.277344 216.714844 L 321.277344 283.878906 Z M 321.246094 204.472656 L 32.429688 204.472656 L 32.429688 137.34375 L 321.277344 137.34375 L 321.277344 204.472656 Z M 321.246094 125.105469 L 32.429688 125.105469 L 32.429688 57.964844 L 321.277344 57.964844 L 321.277344 125.105469 Z M 32.429688 45.726562 L 61.332031 15.199219 L 292.378906 15.199219 L 321.277344 45.726562 Z M 32.429688 45.726562 "/>
<path style=" stroke:none;fill-rule:nonzero;fill:rgb(0%,0%,0%);fill-opacity:1;" d="M 39.648438 64.058594 L 314.023438 64.058594 L 314.023438 70.167969 L 39.648438 70.167969 Z M 39.648438 64.058594 "/>
<path style=" stroke:none;fill-rule:nonzero;fill:rgb(0%,0%,0%);fill-opacity:1;" d="M 39.648438 143.4375 L 314.023438 143.4375 L 314.023438 149.535156 L 39.648438 149.535156 Z M 39.648438 143.4375 "/>
<path style=" stroke:none;fill-rule:nonzero;fill:rgb(0%,0%,0%);fill-opacity:1;" d="M 241.839844 88.464844 L 263.480469 88.464844 L 263.480469 106.769531 L 241.804688 106.769531 L 241.804688 88.464844 Z M 241.839844 88.464844 "/>
<path style=" stroke:none;fill-rule:nonzero;fill:rgb(0%,0%,0%);fill-opacity:1;" d="M 205.738281 88.464844 L 227.410156 88.464844 L 227.410156 106.769531 L 205.738281 106.769531 Z M 205.738281 88.464844 "/>
<path style=" stroke:none;fill-rule:nonzero;fill:rgb(21.176471%,30.588235%,34.901961%);fill-opacity:1;" d="M 18.054688 171.011719 L 18.054688 46.019531 L 35.953125 24.839844 L 53.855469 3.636719 L 176.757812 3.535156 L 299.667969 3.417969 L 317.550781 24.652344 L 335.425781 45.894531 L 335.425781 296.003906 L 18.054688 296.003906 Z M 321.652344 250.289062 L 321.652344 216.699219 L 32.347656 216.699219 L 32.347656 283.898438 L 321.652344 283.898438 Z M 321.652344 170.765625 L 321.652344 136.941406 L 32.347656 136.941406 L 32.347656 204.589844 L 321.652344 204.589844 Z M 321.652344 91.464844 L 321.652344 57.632812 L 32.347656 57.632812 L 32.347656 125.285156 L 321.652344 125.285156 Z M 320.765625 44.882812 C 320.230469 44.269531 313.714844 37.324219 306.285156 29.441406 L 292.777344 15.105469 L 176.917969 15.089844 L 61.078125 15.070312 L 46.699219 30.253906 C 38.820312 38.597656 32.347656 45.558594 32.347656 45.707031 C 32.347656 45.867188 97.464844 45.984375 177.042969 45.984375 L 321.730469 45.984375 Z M 320.765625 44.882812 "/>
<path style=" stroke:none;fill-rule:nonzero;fill:rgb(21.176471%,30.588235%,34.901961%);fill-opacity:1;" d="M 39.777344 67.265625 L 39.777344 64.355469 L 313.707031 64.355469 L 313.707031 70.191406 L 39.777344 70.191406 Z M 39.777344 67.265625 "/>
<path style=" stroke:none;fill-rule:nonzero;fill:rgb(21.176471%,30.588235%,34.901961%);fill-opacity:1;" d="M 206.152344 97.519531 L 206.152344 88.546875 L 227.34375 88.546875 L 227.34375 106.464844 L 206.152344 106.464844 Z M 206.152344 97.519531 "/>
<path style=" stroke:none;fill-rule:nonzero;fill:rgb(21.176471%,30.588235%,34.901961%);fill-opacity:1;" d="M 242.179688 97.519531 L 242.179688 88.546875 L 263.363281 88.546875 L 263.363281 106.464844 L 242.179688 106.464844 Z M 242.179688 97.519531 "/>
<path style=" stroke:none;fill-rule:nonzero;fill:rgb(21.176471%,30.588235%,34.901961%);fill-opacity:1;" d="M 278.207031 97.519531 L 278.207031 88.546875 L 299.386719 88.546875 L 299.386719 106.464844 L 278.207031 106.464844 Z M 278.207031 97.519531 "/>
<path style=" stroke:none;fill-rule:nonzero;fill:rgb(21.176471%,30.588235%,34.901961%);fill-opacity:1;" d="M 39.777344 146.574219 L 39.777344 143.660156 L 313.707031 143.660156 L 313.707031 149.480469 L 39.777344 149.480469 Z M 39.777344 146.574219 "/>
<path style=" stroke:none;fill-rule:nonzero;fill:rgb(21.176471%,30.588235%,34.901961%);fill-opacity:1;" d="M 227.5625 177.042969 C 227.5625 171.863281 227.644531 169.804688 227.738281 172.476562 C 227.828125 175.136719 227.828125 179.367188 227.738281 181.878906 C 227.644531 184.386719 227.5625 182.214844 227.5625 177.042969 Z M 227.5625 177.042969 "/>
<path style=" stroke:none;fill-rule:nonzero;fill:rgb(21.176471%,30.588235%,34.901961%);fill-opacity:1;" d="M 206.152344 176.8125 L 206.152344 167.855469 L 227.34375 167.855469 L 227.34375 185.777344 L 206.152344 185.777344 Z M 206.152344 176.8125 "/>
<path style=" stroke:none;fill-rule:nonzero;fill:rgb(21.176471%,30.588235%,34.901961%);fill-opacity:1;" d="M 242.179688 176.8125 L 242.179688 167.855469 L 263.363281 167.855469 L 263.363281 185.777344 L 242.179688 185.777344 Z M 242.179688 176.8125 "/>
<path style=" stroke:none;fill-rule:nonzero;fill:rgb(21.176471%,30.588235%,34.901961%);fill-opacity:1;" d="M 278.207031 176.8125 L 278.207031 167.855469 L 299.386719 167.855469 L 299.386719 185.777344 L 278.207031 185.777344 Z M 278.207031 176.8125 "/>
<path style=" stroke:none;fill-rule:nonzero;fill:rgb(21.176471%,30.588235%,34.901961%);fill-opacity:1;" d="M 107.941406 222.636719 C 145.585938 222.566406 207.339844 222.566406 245.183594 222.636719 C 283.007812 222.691406 252.207031 222.746094 176.730469 222.746094 C 101.265625 222.746094 70.316406 222.691406 107.941406 222.636719 Z M 107.941406 222.636719 "/>
<path style=" stroke:none;fill-rule:nonzero;fill:rgb(21.176471%,30.588235%,34.901961%);fill-opacity:1;" d="M 39.777344 225.871094 L 39.777344 222.972656 L 313.707031 222.972656 L 313.707031 228.785156 L 39.777344 228.785156 Z M 39.777344 225.871094 "/>
<path style=" stroke:none;fill-rule:nonzero;fill:rgb(21.176471%,30.588235%,34.901961%);fill-opacity:1;" d="M 206.152344 256.570312 L 206.152344 247.605469 L 227.34375 247.605469 L 227.34375 265.527344 L 206.152344 265.527344 Z M 206.152344 256.570312 "/>
<path style=" stroke:none;fill-rule:nonzero;fill:rgb(21.176471%,30.588235%,34.901961%);fill-opacity:1;" d="M 242.179688 256.570312 L 242.179688 247.605469 L 263.363281 247.605469 L 263.363281 265.527344 L 242.179688 265.527344 Z M 242.179688 256.570312 "/>
<path style=" stroke:none;fill-rule:nonzero;fill:rgb(5.490196%,13.72549%,18.039216%);fill-opacity:1;" d="M 278.207031 256.570312 L 278.207031 247.605469 L 299.386719 247.605469 L 299.386719 265.527344 L 278.207031 265.527344 Z M 278.207031 256.570312 "/>
<path style=" stroke:none;fill-rule:nonzero;fill:rgb(5.490196%,13.72549%,18.039216%);fill-opacity:1;" d="M 18.054688 171.152344 L 18.054688 46.300781 L 35.910156 25.152344 L 53.765625 4.019531 L 176.425781 3.722656 C 274.417969 3.480469 299.21875 3.535156 299.757812 3.980469 C 300.105469 4.289062 308.289062 13.902344 317.925781 25.339844 L 335.425781 46.152344 L 335.425781 296.003906 L 18.054688 296.003906 Z M 321.652344 250.289062 L 321.652344 216.699219 L 32.347656 216.699219 L 32.347656 283.898438 L 321.652344 283.898438 Z M 321.652344 170.765625 L 321.652344 136.941406 L 32.347656 136.941406 L 32.347656 204.589844 L 321.652344 204.589844 Z M 321.652344 91.464844 L 321.652344 57.632812 L 32.347656 57.632812 L 32.347656 125.285156 L 321.652344 125.285156 Z M 321.277344 45.339844 C 321.042969 44.988281 314.574219 38.019531 306.910156 29.882812 L 292.980469 15.070312 L 176.835938 15.089844 L 60.707031 15.105469 L 49.3125 27.222656 C 43.042969 33.871094 37.820312 39.5625 37.707031 39.855469 C 37.585938 40.152344 37.054688 40.644531 36.507812 40.96875 C 35.984375 41.285156 35.535156 41.792969 35.535156 42.09375 C 35.535156 42.394531 35.054688 42.886719 34.472656 43.199219 C 33.890625 43.496094 33.429688 44.050781 33.429688 44.417969 C 33.429688 44.785156 33.164062 45.089844 32.851562 45.089844 C 32.539062 45.089844 32.4375 45.292969 32.613281 45.535156 C 32.835938 45.832031 81.644531 45.984375 177.324219 45.984375 C 302.761719 45.984375 321.652344 45.902344 321.277344 45.339844 Z M 321.277344 45.339844 "/>
<path style=" stroke:none;fill-rule:nonzero;fill:rgb(5.490196%,13.72549%,18.039216%);fill-opacity:1;" d="M 39.777344 67.265625 L 39.777344 64.355469 L 313.707031 64.355469 L 313.707031 70.191406 L 39.777344 70.191406 Z M 39.777344 67.265625 "/>
<path style=" stroke:none;fill-rule:nonzero;fill:rgb(5.490196%,13.72549%,18.039216%);fill-opacity:1;" d="M 206.152344 97.519531 L 206.152344 88.546875 L 227.34375 88.546875 L 227.34375 106.464844 L 206.152344 106.464844 Z M 206.152344 97.519531 "/>
<path style=" stroke:none;fill-rule:nonzero;fill:rgb(5.490196%,13.72549%,18.039216%);fill-opacity:1;" d="M 242.179688 97.519531 L 242.179688 88.546875 L 263.363281 88.546875 L 263.363281 106.464844 L 242.179688 106.464844 Z M 242.179688 97.519531 "/>
<path style=" stroke:none;fill-rule:nonzero;fill:rgb(5.490196%,13.72549%,18.039216%);fill-opacity:1;" d="M 278.207031 97.519531 L 278.207031 88.546875 L 299.386719 88.546875 L 299.386719 106.464844 L 278.207031 106.464844 Z M 278.207031 97.519531 "/>
<path style=" stroke:none;fill-rule:nonzero;fill:rgb(5.490196%,13.72549%,18.039216%);fill-opacity:1;" d="M 39.777344 146.574219 L 39.777344 143.660156 L 313.707031 143.660156 L 313.707031 149.480469 L 39.777344 149.480469 Z M 39.777344 146.574219 "/>
<path style=" stroke:none;fill-rule:nonzero;fill:rgb(5.490196%,13.72549%,18.039216%);fill-opacity:1;" d="M 206.152344 176.8125 L 206.152344 167.855469 L 227.34375 167.855469 L 227.34375 185.777344 L 206.152344 185.777344 Z M 206.152344 176.8125 "/>
<path style=" stroke:none;fill-rule:nonzero;fill:rgb(5.490196%,13.72549%,18.039216%);fill-opacity:1;" d="M 242.179688 176.8125 L 242.179688 167.855469 L 263.363281 167.855469 L 263.363281 185.777344 L 242.179688 185.777344 Z M 242.179688 176.8125 "/>
<path style=" stroke:none;fill-rule:nonzero;fill:rgb(5.490196%,13.72549%,18.039216%);fill-opacity:1;" d="M 278.207031 176.8125 L 278.207031 167.855469 L 299.386719 167.855469 L 299.386719 185.777344 L 278.207031 185.777344 Z M 278.207031 176.8125 "/>
<path style=" stroke:none;fill-rule:nonzero;fill:rgb(5.490196%,13.72549%,18.039216%);fill-opacity:1;" d="M 39.777344 225.871094 L 39.777344 222.972656 L 313.707031 222.972656 L 313.707031 228.785156 L 39.777344 228.785156 Z M 39.777344 225.871094 "/>
<path style=" stroke:none;fill-rule:nonzero;fill:rgb(5.490196%,13.72549%,18.039216%);fill-opacity:1;" d="M 206.152344 256.570312 L 206.152344 247.605469 L 227.34375 247.605469 L 227.34375 265.527344 L 206.152344 265.527344 Z M 206.152344 256.570312 "/>
<path style=" stroke:none;fill-rule:nonzero;fill:rgb(5.490196%,13.72549%,18.039216%);fill-opacity:1;" d="M 242.179688 256.570312 L 242.179688 247.605469 L 263.363281 247.605469 L 263.363281 265.527344 L 242.179688 265.527344 Z M 242.179688 256.570312 "/>
</g>
</svg>
