<?xml version="1.0" encoding="UTF-8"?>
<svg xmlns="http://www.w3.org/2000/svg" xmlns:xlink="http://www.w3.org/1999/xlink" width="471pt" height="400pt" viewBox="0 0 471 400" version="1.1">
<g id="surface1">
<path style=" stroke:none;fill-rule:nonzero;fill:rgb(0%,0%,0%);fill-opacity:1;" d="M 327.082031 0 L 90.234375 0 C 74.332031 0 61.382812 11.003906 61.382812 24.507812 L 61.382812 375.136719 C 61.382812 388.660156 74.332031 399.648438 90.234375 399.648438 L 380.351562 399.648438 C 396.265625 399.648438 409.203125 388.660156 409.203125 375.136719 L 409.203125 75.78125 Z M 333.890625 36.675781 L 369.886719 69.898438 L 333.890625 69.898438 Z M 384.972656 375.136719 C 384.972656 377.296875 382.890625 379.066406 380.335938 379.066406 L 90.234375 379.066406 C 87.683594 379.066406 85.613281 377.296875 85.613281 375.136719 L 85.613281 24.507812 C 85.613281 22.34375 87.683594 20.589844 90.234375 20.589844 L 309.644531 20.589844 L 309.644531 80.191406 C 309.644531 85.867188 315.089844 90.46875 321.773438 90.46875 L 384.972656 90.46875 Z M 128.363281 109.460938 L 334.148438 109.460938 C 339.164062 109.460938 343.230469 112.914062 343.230469 117.171875 C 343.230469 121.429688 339.164062 124.882812 334.148438 124.882812 L 128.363281 124.882812 C 123.351562 124.882812 119.285156 121.429688 119.285156 117.171875 C 119.285156 112.914062 123.351562 109.460938 128.363281 109.460938 Z M 343.230469 168.984375 C 343.230469 173.242188 339.164062 176.695312 334.148438 176.695312 L 128.363281 176.695312 C 123.351562 176.695312 119.285156 173.242188 119.285156 168.984375 C 119.285156 164.726562 123.351562 161.273438 128.363281 161.273438 L 334.148438 161.273438 C 339.164062 161.273438 343.230469 164.730469 343.230469 168.984375 Z M 343.230469 219.101562 C 343.230469 223.359375 339.164062 226.8125 334.148438 226.8125 L 128.363281 226.8125 C 123.351562 226.8125 119.285156 223.359375 119.285156 219.101562 C 119.285156 214.84375 123.351562 211.390625 128.363281 211.390625 L 334.148438 211.390625 C 339.164062 211.390625 343.230469 214.84375 343.230469 219.101562 Z M 343.230469 270.074219 C 343.230469 274.332031 339.164062 277.785156 334.148438 277.785156 L 128.363281 277.785156 C 123.351562 277.785156 119.285156 274.332031 119.285156 270.074219 C 119.285156 265.816406 123.351562 262.363281 128.363281 262.363281 L 334.148438 262.363281 C 339.164062 262.363281 343.230469 265.816406 343.230469 270.074219 Z M 343.230469 270.074219 "/>
</g>
</svg>
