<?xml version="1.0" encoding="UTF-8" standalone="no"?>
<svg
   xmlns:dc="http://purl.org/dc/elements/1.1/"
   xmlns:cc="http://creativecommons.org/ns#"
   xmlns:rdf="http://www.w3.org/1999/02/22-rdf-syntax-ns#"
   xmlns:svg="http://www.w3.org/2000/svg"
   xmlns="http://www.w3.org/2000/svg"
   xmlns:sodipodi="http://sodipodi.sourceforge.net/DTD/sodipodi-0.dtd"
   xmlns:inkscape="http://www.inkscape.org/namespaces/inkscape"
   viewBox="0 0 128 128"
   id="svg3384"
   version="1.1"
   inkscape:version="0.92.3 (unknown)"
   sodipodi:docname="cpp_#002835.svg">
  <metadata
     id="metadata3392">
    <rdf:RDF>
      <cc:Work
         rdf:about="">
        <dc:format>image/svg+xml</dc:format>
        <dc:type
           rdf:resource="http://purl.org/dc/dcmitype/StillImage" />
        <dc:title></dc:title>
      </cc:Work>
    </rdf:RDF>
  </metadata>
  <defs
     id="defs3390" />
  <sodipodi:namedview
     pagecolor="#ffffff"
     bordercolor="#666666"
     borderopacity="1"
     objecttolerance="10"
     gridtolerance="10"
     guidetolerance="10"
     inkscape:pageopacity="0"
     inkscape:pageshadow="2"
     inkscape:window-width="1920"
     inkscape:window-height="1000"
     id="namedview3388"
     showgrid="false"
     inkscape:zoom="4"
     inkscape:cx="81.211954"
     inkscape:cy="50.798144"
     inkscape:window-x="1920"
     inkscape:window-y="289"
     inkscape:window-maximized="1"
     inkscape:current-layer="svg3384" />
  <path
     d="m 117.5,33.5 v 0 c -0.6,-1.1 -1.2,-2.3 -2.1,-2.8 L 67.1,2.9 C 66.3,2.4 65.2,2.2 64,2.2 c -1.2,0 -2.3,0.3 -3.1,0.7 l -48,27.9 c -1.7,1 -2.9,3.5 -2.9,5.4 v 55.7 c 0,1.1 0,2.4 0.7,3.5 v 0 c 0.5,0.8 1.2,1.5 1.9,1.9 l 48.2,27.9 c 0.8,0.5 1.9,0.7 3.1,0.7 1.2,0 2.3,-0.3 3.1,-0.7 l 48,-27.9 c 1.7,-1 2.9,-3.5 2.9,-5.4 V 36.1 c 0.1,-0.8 0,-1.7 -0.4,-2.6 z M 82,66 v -4 h 5 v -5 h 5 v 5 h 5 v 4 h -5 v 5 H 87 V 66 Z M 85.3,52 C 81.1,44.5 73.1,39.5 64,39.5 c -13.5,0 -24.5,11 -24.5,24.5 0,13.5 11,24.5 24.5,24.5 9.1,0 17.1,-5 21.3,-12.4 l 12.9,7.6 C 91.4,95.5 78.6,103.5 64,103.5 42.2,103.5 24.5,85.8 24.5,64 24.5,42.2 42.2,24.5 64,24.5 c 14.7,0 27.5,8.1 34.3,20 z M 115,66 h -5 v 5 h -4 v -5 h -6 v -4 h 6 v -5 h 4 v 5 h 5 z"
     id="path3386"
     inkscape:connector-curvature="0"
     style="fill:#002835;fill-opacity:1"
     sodipodi:nodetypes="ccccsccssccccsccsccccccccccccccccsssccsssccccccccccccccc" />
  <path
     id="path6330"
     d="m 185.36756,96.11972 c -19.192,5.362 11.677,16.439 36.115,5.969 -4.003,-1.556 -6.874,-3.351 -6.874,-3.351 -10.897,2.06 -15.952,2.222 -25.844,1.092 -8.164,-0.935 -3.397,-3.71 -3.397,-3.71 z m 33.189,-10.46 c -14.444,2.779 -22.787,2.69 -33.354,1.6 -8.171,-0.845 -2.822,-4.805 -2.822,-4.805 -21.137,7.016 11.767,14.977 41.309,6.336 -3.14,-1.106 -5.133,-3.131 -5.133,-3.131 z m 11.319,-60.575 c 0.001,0 -42.731,10.669 -22.323,34.187 6.024,6.935 -1.58,13.17 -1.58,13.17 0,0 15.289,-7.891 8.269,-17.777 -6.559,-9.215 -11.587,-13.793 15.634,-29.58 z m 9.998,81.144 c 0,0 3.529,2.91 -3.888,5.159 -14.102,4.272 -58.706,5.56 -71.095,0.171 -4.45,-1.938 3.899,-4.625 6.526,-5.192 2.739,-0.593 4.303,-0.485 4.303,-0.485 -4.952,-3.487 -32.013,6.85 -13.742,9.815 49.821,8.076 90.817,-3.637 77.896,-9.468 z m -17.123,-30.333 c 2.395,-1.634 5.703,-3.053 5.703,-3.053 0,0 -9.424,1.685 -18.813,2.474 -11.494,0.964 -23.823,1.154 -30.012,0.326 -14.652,-1.959 8.033,-7.348 8.033,-7.348 0,0 -8.812,-0.596 -19.644,4.644 -12.812,6.195 31.691,9.019 54.733,2.957 z m 5.609,15.145 c -0.108,0.29 -0.468,0.616 -0.468,0.616 31.273,-8.221 19.775,-28.979 4.822,-23.725 -1.312,0.464 -2,1.543 -2,1.543 0,0 0.829,-0.334 2.678,-0.72 7.559,-1.575 18.389,10.119 -5.032,22.286 z m -26.428,-22.972 c -4.614,-10.429 -20.26,-19.553 0.007,-35.559 25.271,-19.947 12.304,-32.9229998 12.304,-32.9229998 5.23,20.6079998 -18.451,26.8329998 -26.999,39.6669998 -5.821,8.745 2.857,18.142 14.688,28.815 z m 27.274,51.748 c -19.187,3.612 -42.854,3.191 -56.887,0.874 0,0 2.874,2.38 17.646,3.331 22.476,1.437 57,-0.8 57.816,-11.436 0.001,0 -1.57,4.032 -18.575,7.231 z"
     inkscape:connector-curvature="0"
     style="fill:#ea2d2e" />
</svg>
