<?xml version="1.0" encoding="UTF-8" standalone="no"?>
<svg
   xmlns:dc="http://purl.org/dc/elements/1.1/"
   xmlns:cc="http://creativecommons.org/ns#"
   xmlns:rdf="http://www.w3.org/1999/02/22-rdf-syntax-ns#"
   xmlns:svg="http://www.w3.org/2000/svg"
   xmlns="http://www.w3.org/2000/svg"
   xmlns:sodipodi="http://sodipodi.sourceforge.net/DTD/sodipodi-0.dtd"
   xmlns:inkscape="http://www.inkscape.org/namespaces/inkscape"
   version="1.1"
   id="Layer_1"
   x="0px"
   y="0px"
   viewBox="188 251.8 110.5 110.5"
   enable-background="new 188 251.8 415.8 110.5"
   xml:space="preserve"
   sodipodi:docname="dart-kuzzleified-6.svg"
   width="110.5"
   height="110.5"
   inkscape:version="0.92.4 (unknown)"><metadata
   id="metadata4608"><rdf:RDF><cc:Work
       rdf:about=""><dc:format>image/svg+xml</dc:format><dc:type
         rdf:resource="http://purl.org/dc/dcmitype/StillImage" /><dc:title></dc:title></cc:Work></rdf:RDF></metadata><defs
   id="defs4606" /><sodipodi:namedview
   pagecolor="#ffffff"
   bordercolor="#666666"
   borderopacity="1"
   objecttolerance="10"
   gridtolerance="10"
   guidetolerance="10"
   inkscape:pageopacity="0"
   inkscape:pageshadow="2"
   inkscape:window-width="1920"
   inkscape:window-height="1000"
   id="namedview4604"
   showgrid="false"
   inkscape:zoom="1.1368468"
   inkscape:cx="495.55794"
   inkscape:cy="27.553618"
   inkscape:window-x="1920"
   inkscape:window-y="27"
   inkscape:window-maximized="1"
   inkscape:current-layer="Layer_1" />




<path
   d="m 217.7,281.7 -7.1,-7.1 v 51.2 l 0.1,2.4 c 0,1.1 0.2,2.4 0.6,3.7 l 56.2,19.8 14,-6.2 v 0 z"
   id="path4591"
   style="fill:#002835;fill-opacity:1;stroke:#eefbff;stroke-opacity:1;stroke-width:0.1;stroke-miterlimit:4;stroke-dasharray:none"
   inkscape:connector-curvature="0" />
<path
   d="m 211.3,331.9 v 0 c 0,0 0,0 0,0 0,0 0,0 0,0 z m 70.2,13.6 -14,6.2 -56.1,-19.8 c 1.1,4.1 3.4,8.7 6,11.3 l 18.3,18.2 40.8,0.1 z"
   id="path4593"
   style="fill:#002835;fill-opacity:1;stroke:#000000;stroke-opacity:1;stroke-width:0.1;stroke-miterlimit:4;stroke-dasharray:none"
   inkscape:connector-curvature="0" />
<path
   d="m 210.8,274.6 -21.8,33 c -1.8,1.9 -0.9,5.9 2,8.9 l 12.6,12.7 7.9,2.8 c -0.3,-1.3 -0.6,-2.6 -0.6,-3.7 l -0.1,-2.4 z"
   id="path4595"
   style="fill:#002835;fill-opacity:1;stroke:#eefbff;stroke-opacity:1;stroke-width:1;stroke-miterlimit:4;stroke-dasharray:none"
   inkscape:connector-curvature="0" />
<path
   d="m 267.9,275.2 c -1.3,-0.3 -2.6,-0.5 -3.7,-0.6 l -2.5,-0.1 h -51.1 l 70.9,70.9 v 0 l 6.2,-14 z"
   id="path4597"
   style="fill:#002835;fill-opacity:1;stroke:#eefbff;stroke-opacity:1;stroke-width:0.1;stroke-miterlimit:4;stroke-dasharray:none"
   inkscape:connector-curvature="0" />
<path
   d="m 267.8,275.2 c 0.1,0 0.1,0 0,0 v 0 c 0.1,0 0.1,0 0,0 z m 11.4,6 c -2.6,-2.6 -7.1,-5 -11.3,-6 l 19.8,56.2 -6.2,14 v 0 l 15.2,-4.9 v -41.7 z"
   id="path4599"
   style="fill:#002835;fill-opacity:1;stroke:#000000;stroke-opacity:1;stroke-width:0.1;stroke-miterlimit:4;stroke-dasharray:none"
   inkscape:connector-curvature="0" />
<path
   d="m 265.1,267.4 -12.7,-12.6 c -2.9,-2.9 -6.9,-3.8 -8.9,-2 l -33,21.8 h 51.1 l 2.5,0.1 c 1.1,0 2.4,0.2 3.7,0.6 z"
   id="path4601"
   inkscape:connector-curvature="0"
   style="display:inline;fill:#002835;fill-opacity:1;stroke:#eefbff;stroke-opacity:1;stroke-width:1;stroke-miterlimit:4;stroke-dasharray:none" />
</svg>