<?xml version="1.0" encoding="utf-8"?>
<!-- Svg Vector Icons : http://www.onlinewebfonts.com/icon -->
<!DOCTYPE svg PUBLIC "-//W3C//DTD SVG 1.1//EN" "http://www.w3.org/Graphics/SVG/1.1/DTD/svg11.dtd">
<svg version="1.1" xmlns="http://www.w3.org/2000/svg" xmlns:xlink="http://www.w3.org/1999/xlink" x="0px" y="0px" viewBox="0 0 1000 1000" enable-background="new 0 0 1000 1000" xml:space="preserve">
<metadata> Svg Vector Icons : http://www.onlinewebfonts.com/icon </metadata>
<g><path d="M907.8,163h-5.1v-32.8c0-27.2-22.1-49.3-49.3-49.3h-0.3c-265.6,0-309.3,113.4-330.4,167.9c-1.3,3.2-2.8,7.2-4,10.1l-24.3-13.7c0-45.3-36.9-82.2-82.2-82.2h-320C46.9,163,10,199.9,10,245.2v558.9c0,45.3,36.9,82.2,82.2,82.2h320c4.8,0,9.3-0.6,13.9-1.4v1.4c0,18.2,14.7,32.9,32.9,32.9h82.2c18.2,0,32.9-14.7,32.9-32.9v-1.4c4.5,0.8,9.2,1.4,13.9,1.4h319.9c45.3,0,82.2-36.9,82.2-82.2V245.2C990,199.9,953.1,163,907.8,163L907.8,163z M445.1,804.1c0,18.2-14.7,32.9-32.9,32.9h-320c-18.2,0-32.9-14.7-32.9-32.9V245.2c0-18.2,14.7-32.9,32.9-32.9h320c18.2,0,32.9,14.7,32.9,32.9V804.1L445.1,804.1z M557.6,290.4c24.5-33.4,16.5-160.2,295.6-160.2h0.3v560c-18.7-2.2-36.4-3.2-53.2-3.2c-152.5,0-228.3,83.3-242.7,100.5V290.4L557.6,290.4z M940.7,804.1c0,18.2-14.7,32.9-32.9,32.9H587.9c-5,0-9.8-1.2-14.1-3.3c8.2-2.9,15.8-7.7,21.6-14.7c11.5-13.8,75.5-82.8,204.8-82.8c15.3,0,31.2,1,47.4,2.9c1.9,0.2,3.9,0.3,5.8,0.3c12,0,23.7-4.4,32.7-12.4c10.5-9.4,16.6-22.8,16.6-36.9V212.3h5.1c18.1,0,32.9,14.7,32.9,32.9V804.1L940.7,804.1z"/></g>
</svg>