<svg width="64" height="64" xmlns="http://www.w3.org/2000/svg">

 <g>
  <title>background</title>
  <rect fill="none" id="canvas_background" height="402" width="582" y="-1" x="-1"/>
 </g>
 <g>
  <title>Layer 1</title>
  <path id="svg_1" d="m31.998,2c-16.565,0 -29.998,13.431 -29.998,30.002c0,13.253 8.595,24.498 20.517,28.465c1.5,0.275 2.048,-0.651 2.048,-1.446c0,-0.712 -0.026,-2.599 -0.041,-5.102c-8.345,1.813 -10.106,-4.021 -10.106,-4.021c-1.364,-3.466 -3.331,-4.388 -3.331,-4.388c-2.724,-1.861 0.206,-1.824 0.206,-1.824c3.011,0.212 4.595,3.092 4.595,3.092c2.676,4.584 7.021,3.261 8.731,2.493c0.273,-1.939 1.048,-3.261 1.905,-4.011c-6.662,-0.757 -13.665,-3.331 -13.665,-14.827c0,-3.275 1.169,-5.953 3.088,-8.05c-0.308,-0.759 -1.338,-3.809 0.294,-7.939c0,0 2.519,-0.807 8.25,3.075c2.393,-0.665 4.959,-0.998 7.511,-1.01c2.548,0.012 5.114,0.344 7.511,1.01c5.727,-3.882 8.242,-3.075 8.242,-3.075c1.637,4.13 0.607,7.18 0.299,7.939c1.923,2.097 3.084,4.775 3.084,8.05c0,11.525 -7.014,14.061 -13.697,14.804c1.077,0.926 2.037,2.757 2.037,5.556c0,4.011 -0.037,7.246 -0.037,8.23c0,0.802 0.54,1.736 2.063,1.443c11.908,-3.978 20.496,-15.215 20.496,-28.464c0,-16.571 -13.433,-30.002 -30.002,-30.002z" fill="#002835" clip-rule="evenodd" fill-rule="evenodd"/>
 </g>
</svg>