<svg width="64" height="64" xmlns="http://www.w3.org/2000/svg">

 <g>
  <title>background</title>
  <rect fill="none" id="canvas_background" height="402" width="582" y="-1" x="-1"/>
 </g>
 <g>
  <title>Layer 1</title>
  <polygon id="svg_1" points="52.29850745201111,58.100994259119034 52.29850745201111,41.00099578499794 57.99850821495056,41.00099578499794 57.99850821495056,63.80099502205849 6.598507642745972,63.80099502205849 6.598507642745972,41.00099578499794 12.298507452011108,41.00099578499794 12.298507452011108,58.100994259119034 " fill="#002835"/>
  <path id="svg_2" d="m18.3,39.6l27.9,5.9l1.2,-5.6l-27.9,-5.9l-1.2,5.6zm3.7,-13.4l25.9,12.1l2.4,-5.2l-25.9,-12.1l-2.4,5.2zm7.2,-12.7l21.9,18.3l3.7,-4.4l-22,-18.3l-3.6,4.4zm14.1,-13.5l-4.6,3.4l17,22.9l4.6,-3.4l-17,-22.9zm-25.6,52.6l28.6,0l0,-5.7l-28.6,0l0,5.7z" fill="#002835"/>
  <path d="m49.512436,11.544465c-0.099503,0 -0.39801,0 -0.995022,0c-0.298508,0 -1.515697,-0.271966 -2.089554,-0.796021c-0.831272,-0.75913 -0.914455,-0.883734 -1.094528,-1.19403c-0.111675,-0.192437 -0.099503,-0.298507 -0.099503,-0.597014c0,-0.099503 0,-0.199005 0,-0.497513c0,-0.199005 0,-0.597014 -0.099503,-0.895522l0,-0.199005" id="svg_4" fill-opacity="null" stroke-opacity="null" stroke-width="null" stroke="null" fill="none"/>
  <path d="m42.845772,4.877798c-0.099503,-0.099503 1.065132,0.902537 1.990047,1.890547c1.062214,1.134675 3.151531,2.614952 3.582092,3.084577c0.242447,0.264442 0.208675,0.375701 0,0.298508c-0.384777,-0.142338 -0.796021,-0.298508 -1.094528,-0.597015l-0.796021,-0.497512l-0.199005,-0.199005" id="svg_5" fill-opacity="null" stroke-opacity="null" stroke-width="null" stroke="null" fill="none"/>
  <path d="m43.741295,6.370336c-0.696518,-0.497512 -3.376286,-2.293804 -8.358212,-3.084577c-3.543255,-0.562415 -5.271688,-0.182637 -8.557213,0.199005c-0.895016,0.103964 -1.691542,0.199005 -2.38806,0.298507l-0.099503,0l-0.298508,0" id="svg_6" fill-opacity="null" stroke-opacity="null" stroke-width="null" stroke="null" fill="none"/>
  <line stroke-linecap="null" stroke-linejoin="null" id="svg_10" y2="40.201181" x2="31.20398" y1="6.569341" x1="24.338309" stroke-opacity="null" stroke-width="null" stroke="null" fill="none"/>
 </g>
</svg>