<svg width="64" height="64" xmlns="http://www.w3.org/2000/svg">
 <g>
  <title>background</title>
  <rect x="-1" y="-1" width="66" height="66" id="canvas_background" fill="none"/>
 </g>

 <g>
  <title>Layer 1</title>
  <path fill="#FFF" d="m41.272,31.81c-4.942,-2.641 -9.674,-5.069 -14.511,-7.604l0,15.165c5.09,-2.767 10.455,-5.301 14.532,-7.561l-0.021,0z" id="svg_1"/>
  <path fill="#E8E0E0" d="m41.272,31.81c-4.942,-2.641 -14.511,-7.604 -14.511,-7.604l12.758,8.575c0.001,0 -2.324,1.289 1.753,-0.971z" id="svg_2"/>
  <path stroke="null" fill="#002835" d="m27.962946,51.291228c-10.22448,-0.188469 -13.71664,-0.357991 -15.863133,-0.800743c-1.452245,-0.294171 -2.714243,-0.94733 -3.639576,-1.89466c-0.715166,-0.716979 -1.283912,-1.810896 -1.725163,-3.328619c-0.3785,-1.264437 -0.525916,-2.316472 -0.736083,-4.88623c-0.321725,-5.799655 -0.398421,-10.541292 0,-15.839361c0.328697,-2.925755 0.488066,-6.398966 2.671413,-8.425256c1.030914,-0.948327 2.230162,-1.558608 3.576825,-1.810896c2.103663,-0.399873 11.066144,-0.715982 20.344374,-0.715982c9.257313,0 18.239715,0.316109 20.34537,0.715982c1.682333,0.316109 3.26008,1.263439 4.186409,2.484997c1.992105,3.137159 2.026967,7.038165 2.229166,10.089565c0.083668,1.453903 0.083668,9.709636 0,11.163539c-0.314753,4.822409 -0.56775,6.528601 -1.282916,8.297615c-0.442247,1.116852 -0.819751,1.706192 -1.473162,2.359351a7.057032,7.065089 0 0 1 -3.745158,1.916599c-8.847935,0.666123 -16.361159,0.810715 -24.888365,0.6741zm13.549303,-19.37739c-4.922492,-2.633578 -9.635812,-5.075696 -14.453719,-7.603571l0,15.123379c5.069908,-2.759224 10.414726,-5.2871 14.474636,-7.540749l-0.020917,0.020941z" id="svg_3"/>
 </g>
</svg>