<?xml version="1.0" standalone="no"?>
<!DOCTYPE svg PUBLIC "-//W3C//DTD SVG 20010904//EN"
 "http://www.w3.org/TR/2001/REC-SVG-20010904/DTD/svg10.dtd">
<svg version="1.0" xmlns="http://www.w3.org/2000/svg"
 width="1033.000000pt" height="1024.000000pt" viewBox="0 0 1033.000000 1024.000000"
 preserveAspectRatio="xMidYMid meet">
<metadata>
Created by potrace 1.15, written by Peter Selinger 2001-2017
</metadata>
<g transform="translate(0.000000,1024.000000) scale(0.100000,-0.100000)"
fill="#000000" stroke="none">
<path d="M4730 10173 c-992 -74 -1925 -423 -2704 -1011 -271 -205 -634 -546
-825 -777 -425 -513 -726 -1042 -927 -1630 -122 -354 -199 -694 -245 -1071
-27 -226 -37 -739 -20 -973 63 -828 323 -1621 759 -2321 492 -788 1204 -1437
2032 -1851 563 -281 1093 -437 1747 -516 214 -26 873 -25 1088 0 948 113 1759
432 2500 982 216 160 342 270 580 509 893 895 1421 2111 1463 3368 22 654 -58
1230 -252 1813 -474 1425 -1545 2564 -2936 3125 -458 184 -946 300 -1460 345
-149 13 -662 18 -800 8z m360 -655 c-46 -98 -64 -193 -57 -317 8 -169 45 -291
212 -711 125 -314 171 -439 233 -630 76 -234 96 -346 137 -795 31 -336 41
-422 61 -540 21 -114 34 -130 34 -39 0 38 5 134 10 214 65 935 242 1606 514
1945 52 65 108 125 117 125 5 0 -1 -25 -11 -56 -35 -100 -50 -210 -50 -359 0
-348 107 -690 348 -1107 216 -375 330 -696 378 -1063 21 -164 25 -563 5 -680
-57 -350 -193 -668 -399 -928 -30 -38 -52 -71 -49 -74 3 -3 104 16 224 41 197
42 709 144 1223 246 107 21 197 37 198 35 14 -13 -92 -283 -175 -449 -127
-252 -325 -538 -512 -739 l-73 -77 -2371 0 -2372 0 -72 88 c-331 404 -519 716
-653 1084 -35 96 -35 97 -12 92 9 -2 85 -17 167 -35 83 -17 332 -71 555 -120
424 -95 792 -170 798 -164 2 2 -23 39 -55 82 -208 273 -339 566 -400 893 -28
147 -25 502 5 670 45 250 123 509 292 970 169 462 220 653 236 886 8 104 -9
258 -36 346 -10 32 -14 58 -9 58 5 0 26 -7 45 -15 266 -111 474 -631 513
-1283 4 -78 10 -145 13 -147 17 -17 142 224 206 395 126 337 191 691 212 1153
7 140 16 241 29 298 82 363 289 677 498 754 72 26 76 22 43 -47z m2390 -6843
l0 -425 -2390 0 -2390 0 0 425 0 425 2390 0 2390 0 0 -425z m-950 -884 c0 -27
-6 -82 -14 -123 -115 -600 -753 -1032 -1484 -1005 -290 10 -527 76 -763 210
-158 90 -309 222 -413 361 -117 157 -206 398 -206 558 l0 48 1440 0 1440 0 0
-49z"/>
</g>
</svg>
