<?xml version="1.0" standalone="no"?>
<!DOCTYPE svg PUBLIC "-//W3C//DTD SVG 20010904//EN"
 "http://www.w3.org/TR/2001/REC-SVG-20010904/DTD/svg10.dtd">
<svg version="1.0" xmlns="http://www.w3.org/2000/svg"
 width="225.000000pt" height="225.000000pt" viewBox="0 0 225.000000 225.000000"
 preserveAspectRatio="xMidYMid meet">
<g transform="translate(0.000000,225.000000) scale(0.100000,-0.100000)"
fill="#000000" stroke="none">
<path d="M538 2239 c-17 -9 -18 -36 -18 -332 0 -238 3 -326 12 -335 9 -9 80
-12 260 -12 l248 0 0 -220 0 -220 -425 0 c-409 0 -425 -1 -435 -19 -6 -12 -10
-100 -10 -215 l0 -196 -73 0 c-43 0 -78 -5 -85 -12 -9 -9 -12 -96 -12 -329 0
-275 2 -320 16 -333 23 -24 465 -24 488 0 14 13 16 57 16 325 0 195 -4 318
-10 330 -10 17 -22 19 -130 19 l-120 0 0 175 0 175 390 0 390 0 0 -175 0 -175
-73 0 c-43 0 -78 -5 -85 -12 -17 -17 -17 -649 0 -666 17 -17 469 -17 486 0 17
17 17 649 0 666 -8 8 -52 12 -130 12 l-118 0 0 175 0 175 435 0 435 0 0 -175
0 -175 -120 0 c-108 0 -120 -2 -130 -19 -6 -12 -10 -135 -10 -330 0 -268 2
-312 16 -325 23 -24 465 -24 488 0 14 13 16 58 16 333 0 233 -3 320 -12 329
-7 7 -42 12 -85 12 l-73 0 0 198 c0 143 -3 203 -12 215 -12 15 -55 17 -478 19
l-465 3 -3 218 -2 217 293 0 c215 0 296 3 305 12 9 9 12 97 12 335 0 308 -1
323 -19 333 -27 14 -1149 13 -1173 -1z m1110 -336 l-3 -258 -520 0 -520 0 -3
258 -2 257 525 0 525 0 -2 -257z m-1218 -1553 l0 -260 -170 0 -170 0 0 260 0
260 170 0 170 0 0 -260z m870 0 l0 -260 -175 0 -175 0 0 260 0 260 175 0 175
0 0 -260z m860 0 l0 -260 -170 0 -170 0 0 260 0 260 170 0 170 0 0 -260z"/>
</g>
</svg>
