<?xml version="1.0" encoding="UTF-8"?>
<svg xmlns="http://www.w3.org/2000/svg" xmlns:xlink="http://www.w3.org/1999/xlink" width="37.5pt" height="37.499999pt" viewBox="0 0 37.5 37.499999" version="1.2">
<defs>
<clipPath id="clip1">
  <path d="M 0.65625 0 L 36.65625 0 L 36.65625 36 L 0.65625 36 Z M 0.65625 0 "/>
</clipPath>
</defs>
<g id="surface1">
<path style=" stroke:none;fill-rule:nonzero;fill:rgb(0%,15.689087%,20.779419%);fill-opacity:1;" d="M 12.050781 5.882812 L 11.394531 5.882812 C 9.027344 5.882812 7.097656 7.808594 7.097656 10.179688 C 7.097656 10.863281 7.265625 11.546875 7.578125 12.152344 L 8.539062 14.011719 L 9.078125 14.011719 C 8.921875 13.65625 8.832031 13.265625 8.832031 12.855469 L 8.832031 12.296875 C 8.832031 11.585938 9.265625 10.949219 9.921875 10.6875 L 11.28125 10.144531 L 11.269531 10.128906 C 11.605469 10.460938 12.035156 10.691406 12.515625 10.773438 L 13.644531 10.960938 C 14.203125 11.054688 14.609375 11.535156 14.609375 12.101562 L 14.609375 12.855469 C 14.609375 13.265625 14.519531 13.65625 14.367188 14.011719 L 14.90625 14.011719 L 15.863281 12.152344 C 16.179688 11.546875 16.34375 10.863281 16.34375 10.179688 C 16.34375 7.808594 14.417969 5.882812 12.050781 5.882812 "/>
<path style=" stroke:none;fill-rule:nonzero;fill:rgb(0%,15.689087%,20.779419%);fill-opacity:1;" d="M 25.011719 28.417969 C 25.011719 30.015625 23.71875 31.308594 22.125 31.308594 C 20.527344 31.308594 19.234375 30.015625 19.234375 28.417969 C 19.234375 26.824219 20.527344 25.527344 22.125 25.527344 C 23.71875 25.527344 25.011719 26.824219 25.011719 28.417969 "/>
<path style=" stroke:none;fill-rule:nonzero;fill:rgb(0%,15.689087%,20.779419%);fill-opacity:1;" d="M 33.101562 28.417969 C 33.101562 30.015625 31.808594 31.308594 30.214844 31.308594 C 28.617188 31.308594 27.324219 30.015625 27.324219 28.417969 C 27.324219 26.824219 28.617188 25.527344 30.214844 25.527344 C 31.808594 25.527344 33.101562 26.824219 33.101562 28.417969 "/>
<path style=" stroke:none;fill-rule:nonzero;fill:rgb(0%,15.689087%,20.779419%);fill-opacity:1;" d="M 8.027344 17.785156 C 8.183594 17.726562 8.339844 17.679688 8.503906 17.660156 L 9.660156 17.492188 C 10.105469 18.199219 10.875 18.632812 11.722656 18.632812 C 12.570312 18.632812 13.339844 18.199219 13.785156 17.492188 L 14.9375 17.660156 C 15.101562 17.679688 15.261719 17.726562 15.417969 17.785156 C 14.347656 18.664062 13.101562 19.332031 11.722656 19.730469 C 10.34375 19.332031 9.09375 18.664062 8.027344 17.785156 Z M 10.820312 16.199219 C 11.105469 16.277344 11.410156 16.320312 11.71875 16.320312 C 11.722656 16.320312 11.722656 16.320312 11.722656 16.320312 C 12.035156 16.320312 12.339844 16.277344 12.625 16.199219 L 12.835938 16.828125 C 12.605469 17.226562 12.1875 17.476562 11.722656 17.476562 C 11.253906 17.476562 10.839844 17.226562 10.609375 16.828125 Z M 11.722656 15.167969 C 10.445312 15.167969 9.410156 14.128906 9.410156 12.855469 L 9.410156 12.296875 C 9.410156 11.820312 9.695312 11.398438 10.136719 11.222656 L 11.167969 10.808594 C 11.53125 11.078125 11.960938 11.265625 12.421875 11.34375 L 13.550781 11.53125 C 13.832031 11.578125 14.035156 11.816406 14.035156 12.101562 L 14.035156 12.855469 C 14.035156 14.128906 12.996094 15.167969 11.722656 15.167969 Z M 4.210938 6.40625 C 6.996094 6.089844 9.519531 5.359375 11.722656 4.226562 C 13.921875 5.359375 16.445312 6.089844 19.234375 6.40625 L 19.234375 9.675781 C 19.234375 12.457031 18.136719 15.03125 16.320312 16.933594 C 15.941406 16.722656 15.53125 16.574219 15.101562 16.515625 L 13.890625 16.34375 L 13.679688 15.710938 C 14.589844 15.085938 15.1875 14.039062 15.1875 12.855469 L 15.1875 12.101562 C 15.1875 11.25 14.578125 10.53125 13.738281 10.390625 L 12.613281 10.203125 C 11.976562 10.097656 11.457031 9.652344 11.253906 9.039062 L 11.113281 8.628906 L 10.019531 8.992188 L 10.15625 9.40625 C 10.210938 9.574219 10.28125 9.734375 10.367188 9.886719 L 9.707031 10.152344 C 8.824219 10.503906 8.253906 11.34375 8.253906 12.296875 L 8.253906 12.855469 C 8.253906 14.039062 8.851562 15.085938 9.761719 15.710938 L 9.554688 16.34375 L 8.34375 16.515625 C 7.910156 16.574219 7.5 16.722656 7.125 16.933594 C 5.308594 15.03125 4.210938 12.457031 4.210938 9.675781 Z M 11.875 20.886719 C 16.886719 19.53125 20.390625 14.921875 20.390625 9.675781 L 20.390625 5.355469 L 19.867188 5.308594 C 16.90625 5.03125 14.257812 4.277344 11.996094 3.0625 L 11.722656 2.917969 L 11.449219 3.0625 C 9.183594 4.277344 6.539062 5.03125 3.578125 5.308594 L 3.054688 5.355469 L 3.054688 9.675781 C 3.054688 14.921875 6.558594 19.53125 11.570312 20.886719 L 11.722656 20.929688 L 11.875 20.886719 "/>
<path style=" stroke:none;fill-rule:nonzero;fill:rgb(0%,15.689087%,20.779419%);fill-opacity:1;" d="M 13.457031 32.464844 L 14.609375 32.464844 L 14.609375 31.308594 L 13.457031 31.308594 L 13.457031 32.464844 "/>
<path style=" stroke:none;fill-rule:nonzero;fill:rgb(0%,15.689087%,20.779419%);fill-opacity:1;" d="M 13.457031 30.152344 L 14.609375 30.152344 L 14.609375 28.996094 L 13.457031 28.996094 L 13.457031 30.152344 "/>
<path style=" stroke:none;fill-rule:nonzero;fill:rgb(0%,15.689087%,20.779419%);fill-opacity:1;" d="M 33.230469 14.761719 L 28.457031 20.070312 L 27.15625 18.765625 L 26.335938 19.582031 L 28.503906 21.746094 L 34.089844 15.535156 L 33.230469 14.761719 "/>
<g clip-path="url(#clip1)" clip-rule="nonzero">
<path style=" stroke:none;fill-rule:nonzero;fill:rgb(0%,15.689087%,20.779419%);fill-opacity:1;" d="M 35.414062 24.375 L 35.414062 32.464844 L 16.921875 32.464844 L 16.921875 24.375 Z M 12.300781 34.417969 L 12.300781 23.085938 C 13.539062 22.765625 14.703125 22.289062 15.765625 21.679688 L 15.765625 22.769531 L 13.457031 23.347656 L 13.457031 27.714844 L 15.765625 28.292969 L 15.765625 32.683594 Z M 7.675781 32.464844 L 9.410156 32.464844 L 9.410156 28.996094 L 7.675781 28.996094 L 7.675781 26.683594 L 9.410156 26.683594 L 9.410156 23.21875 L 7.675781 23.21875 L 7.675781 21.679688 C 8.742188 22.289062 9.90625 22.765625 11.144531 23.085938 L 11.144531 34.417969 L 7.675781 32.683594 Z M 1.898438 9.675781 L 1.898438 4.148438 C 5.367188 4.105469 8.75 3.144531 11.722656 1.359375 C 14.695312 3.144531 18.078125 4.105469 21.546875 4.148438 L 21.546875 9.675781 C 21.546875 15.632812 17.511719 20.703125 11.722656 22.046875 C 5.933594 20.703125 1.898438 15.632812 1.898438 9.675781 Z M 15.765625 27.101562 L 14.609375 26.8125 L 14.609375 24.246094 L 15.765625 23.957031 Z M 25.011719 18.015625 C 25.011719 15.152344 27.347656 12.816406 30.214844 12.816406 C 33.078125 12.816406 35.414062 15.152344 35.414062 18.015625 C 35.414062 20.886719 33.078125 23.21875 30.214844 23.21875 C 27.347656 23.21875 25.011719 20.886719 25.011719 18.015625 Z M 36.570312 18.015625 C 36.570312 14.515625 33.71875 11.660156 30.214844 11.660156 C 26.707031 11.660156 23.855469 14.515625 23.855469 18.015625 C 23.855469 20.167969 24.929688 22.070312 26.570312 23.21875 L 16.921875 23.21875 L 16.921875 20.945312 C 20.472656 18.414062 22.703125 14.292969 22.703125 9.675781 L 22.703125 2.992188 L 21.796875 2.992188 C 18.339844 2.992188 14.960938 2.023438 12.027344 0.191406 L 11.722656 0.00390625 L 11.414062 0.191406 C 8.484375 2.023438 5.105469 2.992188 1.648438 2.992188 L 0.742188 2.992188 L 0.742188 9.675781 C 0.742188 14.292969 2.972656 18.414062 6.519531 20.945312 L 6.519531 24.375 L 8.253906 24.375 L 8.253906 25.527344 L 6.519531 25.527344 L 6.519531 30.152344 L 8.253906 30.152344 L 8.253906 31.308594 L 6.519531 31.308594 L 6.519531 33.398438 L 11.722656 36 L 16.480469 33.617188 L 36.570312 33.617188 L 36.570312 23.21875 L 33.855469 23.21875 C 35.496094 22.070312 36.570312 20.167969 36.570312 18.015625 "/>
</g>
<path style=" stroke:none;fill-rule:nonzero;fill:rgb(0%,15.689087%,20.779419%);fill-opacity:1;" d="M 19.234375 28.996094 L 20.726562 28.996094 L 19.980469 29.742188 L 20.796875 30.558594 L 21.546875 29.8125 L 21.546875 31.308594 L 22.703125 31.308594 L 22.703125 29.8125 L 23.449219 30.558594 L 24.265625 29.742188 L 23.519531 28.996094 L 25.011719 28.996094 L 25.011719 27.839844 L 23.519531 27.839844 L 24.265625 27.09375 L 23.449219 26.277344 L 22.703125 27.027344 L 22.703125 25.527344 L 21.546875 25.527344 L 21.546875 27.027344 L 20.796875 26.277344 L 19.980469 27.09375 L 20.726562 27.839844 L 19.234375 27.839844 L 19.234375 28.996094 "/>
<path style=" stroke:none;fill-rule:nonzero;fill:rgb(0%,15.689087%,20.779419%);fill-opacity:1;" d="M 28.070312 29.742188 L 28.886719 30.558594 L 29.636719 29.8125 L 29.636719 31.308594 L 30.792969 31.308594 L 30.792969 29.8125 L 31.539062 30.558594 L 32.355469 29.742188 L 31.609375 28.996094 L 33.101562 28.996094 L 33.101562 27.839844 L 31.609375 27.839844 L 32.355469 27.09375 L 31.539062 26.277344 L 30.792969 27.027344 L 30.792969 25.527344 L 29.636719 25.527344 L 29.636719 27.027344 L 28.886719 26.277344 L 28.070312 27.09375 L 28.816406 27.839844 L 27.324219 27.839844 L 27.324219 28.996094 L 28.816406 28.996094 L 28.070312 29.742188 "/>
</g>
</svg>
