<?xml version="1.0" encoding="UTF-8"?>
<svg xmlns="http://www.w3.org/2000/svg" xmlns:xlink="http://www.w3.org/1999/xlink" width="37.5pt" height="37.499999pt" viewBox="0 0 37.5 37.499999" version="1.2">
<defs>
<clipPath id="clip1">
  <path d="M 4.40625 8 L 5.15625 8 L 5.15625 32.746094 L 4.40625 32.746094 Z M 4.40625 8 "/>
</clipPath>
<clipPath id="clip2">
  <path d="M 1.875 4 L 16.875 4 L 16.875 8.25 L 1.875 8.25 Z M 1.875 4 "/>
</clipPath>
<clipPath id="clip3">
  <path d="M 20.679688 31.59375 L 35.679688 31.59375 L 35.679688 36.09375 L 20.679688 36.09375 Z M 20.679688 31.59375 "/>
</clipPath>
<clipPath id="clip4">
  <path d="M 1.875 31.59375 L 16.875 31.59375 L 16.875 36.09375 L 1.875 36.09375 Z M 1.875 31.59375 "/>
</clipPath>
<clipPath id="clip5">
  <path d="M 20.679688 4 L 35.679688 4 L 35.679688 8.25 L 20.679688 8.25 Z M 20.679688 4 "/>
</clipPath>
<clipPath id="clip6">
  <path d="M 9.347656 18.152344 L 24 18.152344 L 24 22.652344 L 9.347656 22.652344 Z M 9.347656 18.152344 "/>
</clipPath>
<clipPath id="clip7">
  <path d="M 16.066406 33.730469 L 21.316406 33.730469 L 21.316406 34.480469 L 16.066406 34.480469 Z M 16.066406 33.730469 "/>
</clipPath>
<clipPath id="clip8">
  <path d="M 16.066406 5.886719 L 21.316406 5.886719 L 21.316406 6.636719 L 16.066406 6.636719 Z M 16.066406 5.886719 "/>
</clipPath>
<clipPath id="clip9">
  <path d="M 9 7 L 17 7 L 17 20 L 9 20 Z M 9 7 "/>
</clipPath>
<clipPath id="clip10">
  <path d="M 9.675781 7.085938 L 10.355469 6.769531 L 16.390625 19.675781 L 15.710938 19.996094 Z M 9.675781 7.085938 "/>
</clipPath>
<clipPath id="clip11">
  <path d="M 9.675781 7.085938 L 10.355469 6.769531 L 20.835938 29.1875 L 20.15625 29.507812 Z M 9.675781 7.085938 "/>
</clipPath>
<clipPath id="clip12">
  <path d="M 9 21 L 17 21 L 17 35 L 9 35 Z M 9 21 "/>
</clipPath>
<clipPath id="clip13">
  <path d="M 15.832031 21.515625 L 16.503906 21.847656 L 10.207031 34.628906 L 9.535156 34.296875 Z M 15.832031 21.515625 "/>
</clipPath>
<clipPath id="clip14">
  <path d="M 20.636719 11.753906 L 21.308594 12.085938 L 10.375 34.289062 L 9.703125 33.957031 Z M 20.636719 11.753906 "/>
</clipPath>
<clipPath id="clip15">
  <path d="M 22 7 L 30 7 L 30 20 L 22 20 Z M 22 7 "/>
</clipPath>
<clipPath id="clip16">
  <path d="M 28.824219 7 L 29.496094 7.328125 L 23.203125 20.113281 L 22.527344 19.78125 Z M 28.824219 7 "/>
</clipPath>
<clipPath id="clip17">
  <path d="M 33.628906 -2.761719 L 34.304688 -2.429688 L 23.371094 19.773438 L 22.695312 19.441406 Z M 33.628906 -2.761719 "/>
</clipPath>
<clipPath id="clip18">
  <path d="M 22 21 L 31 21 L 31 34 L 22 34 Z M 22 21 "/>
</clipPath>
<clipPath id="clip19">
  <path d="M 22.667969 21.382812 L 23.316406 21.003906 L 30.480469 33.324219 L 29.832031 33.699219 Z M 22.667969 21.382812 "/>
</clipPath>
<clipPath id="clip20">
  <path d="M 17.199219 11.976562 L 17.847656 11.597656 L 30.289062 32.996094 L 29.640625 33.371094 Z M 17.199219 11.976562 "/>
</clipPath>
</defs>
<g id="surface1">
<g clip-path="url(#clip1)" clip-rule="nonzero">
<path style=" stroke:none;fill-rule:nonzero;fill:rgb(0%,15.689087%,20.779419%);fill-opacity:1;" d="M 4.40625 8.273438 L 4.40625 32.472656 L 5.15625 32.472656 L 5.15625 8.273438 Z M 4.40625 8.273438 "/>
</g>
<g clip-path="url(#clip2)" clip-rule="nonzero">
<path style=" stroke:none;fill-rule:nonzero;fill:rgb(0%,15.689087%,20.779419%);fill-opacity:1;" d="M 3.675781 5.488281 L 4.347656 5.488281 C 4.714844 5.488281 5.015625 5.789062 5.015625 6.160156 C 5.015625 6.527344 4.714844 6.828125 4.347656 6.828125 L 3.675781 6.828125 C 3.308594 6.828125 3.007812 6.527344 3.007812 6.160156 C 3.007812 5.789062 3.308594 5.488281 3.675781 5.488281 Z M 7.023438 5.488281 L 7.695312 5.488281 C 8.0625 5.488281 8.363281 5.789062 8.363281 6.160156 C 8.363281 6.527344 8.0625 6.828125 7.695312 6.828125 L 7.023438 6.828125 C 6.65625 6.828125 6.355469 6.527344 6.355469 6.160156 C 6.355469 5.789062 6.65625 5.488281 7.023438 5.488281 Z M 12.382812 5.488281 L 14.390625 5.488281 C 14.757812 5.488281 15.058594 5.789062 15.058594 6.160156 C 15.058594 6.527344 14.757812 6.828125 14.390625 6.828125 L 12.382812 6.828125 C 12.011719 6.828125 11.710938 6.527344 11.710938 6.160156 C 11.710938 5.789062 12.011719 5.488281 12.382812 5.488281 Z M 2.335938 8.167969 L 15.730469 8.167969 C 16.097656 8.167969 16.398438 7.867188 16.398438 7.5 L 16.398438 4.820312 C 16.398438 4.449219 16.097656 4.148438 15.730469 4.148438 L 2.335938 4.148438 C 1.96875 4.148438 1.667969 4.449219 1.667969 4.820312 L 1.667969 7.5 C 1.667969 7.867188 1.96875 8.167969 2.335938 8.167969 "/>
</g>
<g clip-path="url(#clip3)" clip-rule="nonzero">
<path style=" stroke:none;fill-rule:nonzero;fill:rgb(0%,15.689087%,20.779419%);fill-opacity:1;" d="M 22.480469 33.332031 L 23.152344 33.332031 C 23.519531 33.332031 23.820312 33.632812 23.820312 34.003906 C 23.820312 34.371094 23.519531 34.671875 23.152344 34.671875 L 22.480469 34.671875 C 22.113281 34.671875 21.8125 34.371094 21.8125 34.003906 C 21.8125 33.632812 22.113281 33.332031 22.480469 33.332031 Z M 25.828125 33.332031 L 26.5 33.332031 C 26.867188 33.332031 27.167969 33.632812 27.167969 34.003906 C 27.167969 34.371094 26.867188 34.671875 26.5 34.671875 L 25.828125 34.671875 C 25.460938 34.671875 25.160156 34.371094 25.160156 34.003906 C 25.160156 33.632812 25.460938 33.332031 25.828125 33.332031 Z M 31.1875 33.332031 L 33.195312 33.332031 C 33.566406 33.332031 33.867188 33.632812 33.867188 34.003906 C 33.867188 34.371094 33.566406 34.671875 33.195312 34.671875 L 31.1875 34.671875 C 30.816406 34.671875 30.515625 34.371094 30.515625 34.003906 C 30.515625 33.632812 30.816406 33.332031 31.1875 33.332031 Z M 21.140625 36.011719 L 34.535156 36.011719 C 34.902344 36.011719 35.203125 35.710938 35.203125 35.34375 L 35.203125 32.664062 C 35.203125 32.292969 34.902344 31.992188 34.535156 31.992188 L 21.140625 31.992188 C 20.773438 31.992188 20.472656 32.292969 20.472656 32.664062 L 20.472656 35.34375 C 20.472656 35.710938 20.773438 36.011719 21.140625 36.011719 "/>
</g>
<g clip-path="url(#clip4)" clip-rule="nonzero">
<path style=" stroke:none;fill-rule:nonzero;fill:rgb(0%,15.689087%,20.779419%);fill-opacity:1;" d="M 3.675781 33.332031 L 4.347656 33.332031 C 4.714844 33.332031 5.015625 33.632812 5.015625 34.003906 C 5.015625 34.371094 4.714844 34.671875 4.347656 34.671875 L 3.675781 34.671875 C 3.308594 34.671875 3.007812 34.371094 3.007812 34.003906 C 3.007812 33.632812 3.308594 33.332031 3.675781 33.332031 Z M 7.023438 33.332031 L 7.695312 33.332031 C 8.0625 33.332031 8.363281 33.632812 8.363281 34.003906 C 8.363281 34.371094 8.0625 34.671875 7.695312 34.671875 L 7.023438 34.671875 C 6.65625 34.671875 6.355469 34.371094 6.355469 34.003906 C 6.355469 33.632812 6.65625 33.332031 7.023438 33.332031 Z M 12.382812 33.332031 L 14.390625 33.332031 C 14.757812 33.332031 15.058594 33.632812 15.058594 34.003906 C 15.058594 34.371094 14.757812 34.671875 14.390625 34.671875 L 12.382812 34.671875 C 12.011719 34.671875 11.710938 34.371094 11.710938 34.003906 C 11.710938 33.632812 12.011719 33.332031 12.382812 33.332031 Z M 2.335938 36.011719 L 15.730469 36.011719 C 16.097656 36.011719 16.398438 35.710938 16.398438 35.34375 L 16.398438 32.664062 C 16.398438 32.292969 16.097656 31.992188 15.730469 31.992188 L 2.335938 31.992188 C 1.96875 31.992188 1.667969 32.292969 1.667969 32.664062 L 1.667969 35.34375 C 1.667969 35.710938 1.96875 36.011719 2.335938 36.011719 "/>
</g>
<g clip-path="url(#clip5)" clip-rule="nonzero">
<path style=" stroke:none;fill-rule:nonzero;fill:rgb(0%,15.689087%,20.779419%);fill-opacity:1;" d="M 22.480469 5.488281 L 23.152344 5.488281 C 23.519531 5.488281 23.820312 5.789062 23.820312 6.160156 C 23.820312 6.527344 23.519531 6.828125 23.152344 6.828125 L 22.480469 6.828125 C 22.113281 6.828125 21.8125 6.527344 21.8125 6.160156 C 21.8125 5.789062 22.113281 5.488281 22.480469 5.488281 Z M 25.828125 5.488281 L 26.5 5.488281 C 26.867188 5.488281 27.167969 5.789062 27.167969 6.160156 C 27.167969 6.527344 26.867188 6.828125 26.5 6.828125 L 25.828125 6.828125 C 25.460938 6.828125 25.160156 6.527344 25.160156 6.160156 C 25.160156 5.789062 25.460938 5.488281 25.828125 5.488281 Z M 31.1875 5.488281 L 33.195312 5.488281 C 33.566406 5.488281 33.867188 5.789062 33.867188 6.160156 C 33.867188 6.527344 33.566406 6.828125 33.195312 6.828125 L 31.1875 6.828125 C 30.816406 6.828125 30.515625 6.527344 30.515625 6.160156 C 30.515625 5.789062 30.816406 5.488281 31.1875 5.488281 Z M 21.140625 8.167969 L 34.535156 8.167969 C 34.902344 8.167969 35.203125 7.867188 35.203125 7.5 L 35.203125 4.820312 C 35.203125 4.449219 34.902344 4.148438 34.535156 4.148438 L 21.140625 4.148438 C 20.773438 4.148438 20.472656 4.449219 20.472656 4.820312 L 20.472656 7.5 C 20.472656 7.867188 20.773438 8.167969 21.140625 8.167969 "/>
</g>
<g clip-path="url(#clip6)" clip-rule="nonzero">
<path style=" stroke:none;fill-rule:nonzero;fill:rgb(0%,15.689087%,20.779419%);fill-opacity:1;" d="M 11.148438 19.894531 L 11.820312 19.894531 C 12.1875 19.894531 12.488281 20.195312 12.488281 20.5625 C 12.488281 20.929688 12.1875 21.230469 11.820312 21.230469 L 11.148438 21.230469 C 10.78125 21.230469 10.480469 20.929688 10.480469 20.5625 C 10.480469 20.195312 10.78125 19.894531 11.148438 19.894531 Z M 14.496094 19.894531 L 15.167969 19.894531 C 15.535156 19.894531 15.835938 20.195312 15.835938 20.5625 C 15.835938 20.929688 15.535156 21.230469 15.167969 21.230469 L 14.496094 21.230469 C 14.128906 21.230469 13.828125 20.929688 13.828125 20.5625 C 13.828125 20.195312 14.128906 19.894531 14.496094 19.894531 Z M 19.855469 19.894531 L 21.863281 19.894531 C 22.230469 19.894531 22.53125 20.195312 22.53125 20.5625 C 22.53125 20.929688 22.230469 21.230469 21.863281 21.230469 L 19.855469 21.230469 C 19.484375 21.230469 19.183594 20.929688 19.183594 20.5625 C 19.183594 20.195312 19.484375 19.894531 19.855469 19.894531 Z M 9.808594 22.570312 L 23.203125 22.570312 C 23.570312 22.570312 23.871094 22.269531 23.871094 21.902344 L 23.871094 19.222656 C 23.871094 18.855469 23.570312 18.554688 23.203125 18.554688 L 9.808594 18.554688 C 9.441406 18.554688 9.140625 18.855469 9.140625 19.222656 L 9.140625 21.902344 C 9.140625 22.269531 9.441406 22.570312 9.808594 22.570312 "/>
</g>
<g clip-path="url(#clip7)" clip-rule="nonzero">
<path style=" stroke:none;fill-rule:nonzero;fill:rgb(0%,15.689087%,20.779419%);fill-opacity:1;" d="M 16.339844 34.480469 L 40.542969 34.480469 L 40.542969 33.730469 L 16.339844 33.730469 Z M 16.339844 34.480469 "/>
</g>
<g clip-path="url(#clip8)" clip-rule="nonzero">
<path style=" stroke:none;fill-rule:nonzero;fill:rgb(0%,15.689087%,20.779419%);fill-opacity:1;" d="M 16.339844 6.636719 L 40.542969 6.636719 L 40.542969 5.886719 L 16.339844 5.886719 Z M 16.339844 6.636719 "/>
</g>
<g clip-path="url(#clip9)" clip-rule="nonzero">
<g clip-path="url(#clip10)" clip-rule="nonzero">
<g clip-path="url(#clip11)" clip-rule="nonzero">
<path style=" stroke:none;fill-rule:nonzero;fill:rgb(0%,15.689087%,20.779419%);fill-opacity:1;" d="M 9.789062 7.335938 L 20.039062 29.257812 L 20.71875 28.941406 L 10.46875 7.019531 Z M 9.789062 7.335938 "/>
</g>
</g>
</g>
<g clip-path="url(#clip12)" clip-rule="nonzero">
<g clip-path="url(#clip13)" clip-rule="nonzero">
<g clip-path="url(#clip14)" clip-rule="nonzero">
<path style=" stroke:none;fill-rule:nonzero;fill:rgb(0%,15.689087%,20.779419%);fill-opacity:1;" d="M 20.515625 12 L 9.824219 33.710938 L 10.496094 34.042969 L 21.1875 12.332031 Z M 20.515625 12 "/>
</g>
</g>
</g>
<g clip-path="url(#clip15)" clip-rule="nonzero">
<g clip-path="url(#clip16)" clip-rule="nonzero">
<g clip-path="url(#clip17)" clip-rule="nonzero">
<path style=" stroke:none;fill-rule:nonzero;fill:rgb(0%,15.689087%,20.779419%);fill-opacity:1;" d="M 33.507812 -2.515625 L 22.816406 19.195312 L 23.492188 19.527344 L 34.183594 -2.183594 Z M 33.507812 -2.515625 "/>
</g>
</g>
</g>
<g clip-path="url(#clip18)" clip-rule="nonzero">
<g clip-path="url(#clip19)" clip-rule="nonzero">
<g clip-path="url(#clip20)" clip-rule="nonzero">
<path style=" stroke:none;fill-rule:nonzero;fill:rgb(0%,15.689087%,20.779419%);fill-opacity:1;" d="M 17.335938 12.214844 L 29.503906 33.132812 L 30.152344 32.757812 L 17.984375 11.835938 Z M 17.335938 12.214844 "/>
</g>
</g>
</g>
</g>
</svg>
