<?xml version="1.0" encoding="UTF-8"?>
<svg xmlns="http://www.w3.org/2000/svg" xmlns:xlink="http://www.w3.org/1999/xlink" width="37.5pt" height="37.499999pt" viewBox="0 0 37.5 37.499999" version="1.2">
<defs>
<clipPath id="clip1">
  <path d="M 0.9375 1.125 L 36.9375 1.125 L 36.9375 34 L 0.9375 34 Z M 0.9375 1.125 "/>
</clipPath>
<clipPath id="clip2">
  <path d="M 3 32 L 7 32 L 7 37.007812 L 3 37.007812 Z M 3 32 "/>
</clipPath>
<clipPath id="clip3">
  <path d="M 12 32 L 17 32 L 17 37.007812 L 12 37.007812 Z M 12 32 "/>
</clipPath>
</defs>
<g id="surface1">
<path style=" stroke:none;fill-rule:nonzero;fill:rgb(0%,15.689087%,20.779419%);fill-opacity:1;" d="M 9.066406 11.578125 L 9.066406 9.253906 C 9.066406 8.613281 9.589844 8.09375 10.226562 8.09375 C 10.867188 8.09375 11.390625 8.613281 11.390625 9.253906 L 11.390625 11.578125 Z M 12.550781 15.058594 L 12.550781 9.253906 C 12.550781 7.972656 11.507812 6.929688 10.226562 6.929688 C 8.945312 6.929688 7.90625 7.972656 7.90625 9.253906 L 7.90625 15.058594 L 9.066406 15.058594 L 9.066406 12.738281 L 11.390625 12.738281 L 11.390625 15.058594 L 12.550781 15.058594 "/>
<path style=" stroke:none;fill-rule:nonzero;fill:rgb(0%,15.689087%,20.779419%);fill-opacity:1;" d="M 14.871094 8.09375 L 16.035156 8.09375 C 16.675781 8.09375 17.195312 8.613281 17.195312 9.253906 C 17.195312 9.894531 16.675781 10.414062 16.035156 10.414062 L 14.871094 10.414062 Z M 16.035156 11.578125 C 17.316406 11.578125 18.355469 10.535156 18.355469 9.253906 C 18.355469 7.972656 17.316406 6.929688 16.035156 6.929688 L 13.710938 6.929688 L 13.710938 15.058594 L 14.871094 15.058594 L 14.871094 11.578125 L 16.035156 11.578125 "/>
<path style=" stroke:none;fill-rule:nonzero;fill:rgb(0%,15.689087%,20.779419%);fill-opacity:1;" d="M 18.9375 13.898438 L 18.9375 15.058594 L 22.421875 15.058594 L 22.421875 13.898438 L 21.261719 13.898438 L 21.261719 8.09375 L 22.421875 8.09375 L 22.421875 6.929688 L 18.9375 6.929688 L 18.9375 8.09375 L 20.097656 8.09375 L 20.097656 13.898438 L 18.9375 13.898438 "/>
<g clip-path="url(#clip1)" clip-rule="nonzero">
<path style=" stroke:none;fill-rule:nonzero;fill:rgb(0%,15.689087%,20.779419%);fill-opacity:1;" d="M 26.484375 17.382812 C 29.6875 17.382812 32.292969 19.988281 32.292969 23.191406 C 32.292969 26.390625 29.6875 28.996094 26.484375 28.996094 C 23.285156 28.996094 20.679688 26.390625 20.679688 23.191406 C 20.679688 19.988281 23.285156 17.382812 26.484375 17.382812 Z M 34.457031 24.78125 L 34.371094 25.128906 C 34.175781 25.925781 33.859375 26.6875 33.433594 27.394531 L 33.246094 27.699219 L 33.960938 28.851562 L 32.148438 30.664062 L 30.996094 29.949219 L 30.691406 30.136719 C 29.984375 30.5625 29.222656 30.878906 28.425781 31.074219 L 28.078125 31.160156 L 27.765625 32.480469 L 25.203125 32.480469 L 24.894531 31.160156 L 24.546875 31.074219 C 23.75 30.878906 22.984375 30.5625 22.28125 30.136719 L 21.976562 29.949219 L 20.824219 30.664062 L 19.011719 28.851562 L 19.722656 27.699219 L 19.539062 27.394531 C 19.113281 26.6875 18.796875 25.925781 18.597656 25.128906 L 18.515625 24.78125 L 17.195312 24.472656 L 17.195312 21.90625 L 18.515625 21.597656 L 18.597656 21.25 C 18.796875 20.453125 19.113281 19.691406 19.539062 18.984375 L 19.6875 18.742188 L 19.167969 17.382812 L 22.644531 17.382812 C 20.761719 18.632812 19.519531 20.765625 19.519531 23.191406 C 19.519531 27.03125 22.644531 30.15625 26.484375 30.15625 C 30.328125 30.15625 33.453125 27.03125 33.453125 23.191406 C 33.453125 20.121094 31.457031 17.515625 28.699219 16.589844 C 29.015625 16.328125 29.28125 16.011719 29.488281 15.65625 C 29.902344 15.824219 30.308594 16.011719 30.691406 16.242188 L 30.996094 16.429688 L 32.148438 15.714844 L 33.960938 17.527344 L 33.246094 18.679688 L 33.433594 18.984375 C 33.859375 19.691406 34.175781 20.453125 34.371094 21.25 L 34.457031 21.597656 L 35.777344 21.90625 L 35.777344 24.472656 Z M 36.9375 25.390625 L 36.9375 20.988281 L 35.40625 20.628906 C 35.214844 19.953125 34.945312 19.304688 34.605469 18.695312 L 35.433594 17.355469 L 32.320312 14.242188 L 30.980469 15.070312 C 30.632812 14.875 30.269531 14.714844 29.902344 14.570312 C 29.945312 14.351562 29.96875 14.128906 29.96875 13.898438 C 29.96875 12.175781 28.710938 10.746094 27.0625 10.46875 C 27.0625 10.449219 27.066406 10.433594 27.066406 10.414062 C 27.066406 7.210938 24.460938 4.609375 21.261719 4.609375 C 20.527344 4.609375 19.820312 4.742188 19.144531 5.011719 C 17.820312 2.632812 15.292969 1.125 12.550781 1.125 C 8.570312 1.125 5.308594 4.222656 5.027344 8.128906 C 2.730469 8.402344 0.9375 10.363281 0.9375 12.738281 C 0.9375 15.296875 3.023438 17.382812 5.582031 17.382812 L 6.742188 17.382812 L 6.742188 23.992188 L 4.421875 25.152344 L 4.421875 28.996094 L 5.582031 28.996094 L 5.582031 25.871094 L 7.90625 24.710938 L 7.90625 16.222656 L 5.582031 16.222656 C 3.660156 16.222656 2.097656 14.660156 2.097656 12.738281 C 2.097656 10.816406 3.660156 9.253906 5.582031 9.253906 C 5.921875 9.253906 6.257812 9.300781 6.578125 9.398438 L 6.910156 8.285156 C 6.675781 8.214844 6.433594 8.167969 6.191406 8.136719 C 6.464844 4.863281 9.210938 2.285156 12.550781 2.285156 C 15.03125 2.285156 17.308594 3.75 18.351562 6.011719 L 18.605469 6.5625 L 19.140625 6.285156 C 19.804688 5.941406 20.519531 5.769531 21.261719 5.769531 C 23.820312 5.769531 25.90625 7.855469 25.90625 10.414062 C 25.90625 10.433594 25.902344 10.449219 25.902344 10.464844 C 25.367188 10.554688 24.859375 10.769531 24.414062 11.097656 L 25.105469 12.03125 C 25.507812 11.734375 25.984375 11.578125 26.484375 11.578125 C 27.765625 11.578125 28.808594 12.617188 28.808594 13.898438 C 28.808594 15.179688 27.765625 16.222656 26.484375 16.222656 L 11.390625 16.222656 L 11.390625 24.710938 L 13.710938 25.871094 L 13.710938 28.996094 L 14.871094 28.996094 L 14.871094 25.152344 L 12.550781 23.992188 L 12.550781 17.382812 L 17.925781 17.382812 L 18.402344 18.628906 C 18.042969 19.261719 17.765625 19.929688 17.566406 20.628906 L 16.035156 20.988281 L 16.035156 25.390625 L 17.566406 25.75 C 17.757812 26.425781 18.027344 27.074219 18.367188 27.683594 L 17.539062 29.023438 L 20.652344 32.136719 L 21.992188 31.308594 C 22.601562 31.648438 23.25 31.917969 23.925781 32.113281 L 24.285156 33.640625 L 28.6875 33.640625 L 29.046875 32.113281 C 29.71875 31.917969 30.367188 31.648438 30.980469 31.308594 L 32.320312 32.136719 L 35.433594 29.023438 L 34.605469 27.683594 C 34.945312 27.074219 35.214844 26.425781 35.410156 25.75 L 36.9375 25.390625 "/>
</g>
<path style=" stroke:none;fill-rule:nonzero;fill:rgb(0%,15.689087%,20.779419%);fill-opacity:1;" d="M 26.484375 19.707031 C 28.40625 19.707031 29.96875 21.269531 29.96875 23.191406 C 29.96875 25.109375 28.40625 26.671875 26.484375 26.671875 C 24.566406 26.671875 23.003906 25.109375 23.003906 23.191406 C 23.003906 21.269531 24.566406 19.707031 26.484375 19.707031 Z M 26.484375 27.835938 C 29.046875 27.835938 31.132812 25.75 31.132812 23.191406 C 31.132812 20.628906 29.046875 18.542969 26.484375 18.542969 C 23.925781 18.542969 21.839844 20.628906 21.839844 23.191406 C 21.839844 25.75 23.925781 27.835938 26.484375 27.835938 "/>
<path style=" stroke:none;fill-rule:nonzero;fill:rgb(0%,15.689087%,20.779419%);fill-opacity:1;" d="M 5.582031 30.15625 L 4.421875 30.15625 L 4.421875 31.320312 L 5.582031 31.320312 L 5.582031 30.15625 "/>
<path style=" stroke:none;fill-rule:nonzero;fill:rgb(0%,15.689087%,20.779419%);fill-opacity:1;" d="M 14.871094 30.15625 L 13.710938 30.15625 L 13.710938 31.320312 L 14.871094 31.320312 L 14.871094 30.15625 "/>
<g clip-path="url(#clip2)" clip-rule="nonzero">
<path style=" stroke:none;fill-rule:nonzero;fill:rgb(0%,15.689087%,20.779419%);fill-opacity:1;" d="M 5.003906 35.964844 C 4.683594 35.964844 4.421875 35.703125 4.421875 35.382812 C 4.421875 35.0625 4.683594 34.800781 5.003906 34.800781 C 5.320312 34.800781 5.582031 35.0625 5.582031 35.382812 C 5.582031 35.703125 5.320312 35.964844 5.003906 35.964844 Z M 5.582031 33.746094 L 5.582031 32.480469 L 4.421875 32.480469 L 4.421875 33.746094 C 3.746094 33.988281 3.261719 34.628906 3.261719 35.382812 C 3.261719 36.34375 4.039062 37.125 5.003906 37.125 C 5.964844 37.125 6.742188 36.34375 6.742188 35.382812 C 6.742188 34.628906 6.257812 33.988281 5.582031 33.746094 "/>
</g>
<g clip-path="url(#clip3)" clip-rule="nonzero">
<path style=" stroke:none;fill-rule:nonzero;fill:rgb(0%,15.689087%,20.779419%);fill-opacity:1;" d="M 14.292969 35.964844 C 13.972656 35.964844 13.710938 35.703125 13.710938 35.382812 C 13.710938 35.0625 13.972656 34.800781 14.292969 34.800781 C 14.613281 34.800781 14.871094 35.0625 14.871094 35.382812 C 14.871094 35.703125 14.613281 35.964844 14.292969 35.964844 Z M 14.871094 33.746094 L 14.871094 32.480469 L 13.710938 32.480469 L 13.710938 33.746094 C 13.039062 33.988281 12.550781 34.628906 12.550781 35.382812 C 12.550781 36.34375 13.332031 37.125 14.292969 37.125 C 15.253906 37.125 16.035156 36.34375 16.035156 35.382812 C 16.035156 34.628906 15.546875 33.988281 14.871094 33.746094 "/>
</g>
<path style=" stroke:none;fill-rule:nonzero;fill:rgb(0%,15.689087%,20.779419%);fill-opacity:1;" d="M 9.648438 31.898438 C 9.328125 31.898438 9.066406 31.636719 9.066406 31.320312 C 9.066406 31 9.328125 30.738281 9.648438 30.738281 C 9.96875 30.738281 10.226562 31 10.226562 31.320312 C 10.226562 31.636719 9.96875 31.898438 9.648438 31.898438 Z M 10.226562 29.683594 L 10.226562 23.191406 L 9.066406 23.191406 L 9.066406 29.683594 C 8.394531 29.921875 7.90625 30.5625 7.90625 31.320312 C 7.90625 32.28125 8.683594 33.058594 9.648438 33.058594 C 10.609375 33.058594 11.390625 32.28125 11.390625 31.320312 C 11.390625 30.5625 10.902344 29.921875 10.226562 29.683594 "/>
<path style=" stroke:none;fill-rule:nonzero;fill:rgb(0%,15.689087%,20.779419%);fill-opacity:1;" d="M 10.226562 16.222656 L 9.066406 16.222656 L 9.066406 17.382812 L 10.226562 17.382812 L 10.226562 16.222656 "/>
<path style=" stroke:none;fill-rule:nonzero;fill:rgb(0%,15.689087%,20.779419%);fill-opacity:1;" d="M 10.226562 18.542969 L 9.066406 18.542969 L 9.066406 19.707031 L 10.226562 19.707031 L 10.226562 18.542969 "/>
<path style=" stroke:none;fill-rule:nonzero;fill:rgb(0%,15.689087%,20.779419%);fill-opacity:1;" d="M 9.066406 22.027344 L 10.226562 22.027344 L 10.226562 20.867188 L 9.066406 20.867188 L 9.066406 22.027344 "/>
</g>
</svg>
