<?xml version="1.0" encoding="UTF-8"?>
<svg xmlns="http://www.w3.org/2000/svg" xmlns:xlink="http://www.w3.org/1999/xlink" width="37.5pt" height="37.499999pt" viewBox="0 0 37.5 37.499999" version="1.2">
<defs>
<clipPath id="clip1">
  <path d="M 12 22 L 25 22 L 25 35.25 L 12 35.25 Z M 12 22 "/>
</clipPath>
<clipPath id="clip2">
  <path d="M 21 31 L 23 31 L 23 35.25 L 21 35.25 Z M 21 31 "/>
</clipPath>
<clipPath id="clip3">
  <path d="M 14 31 L 16 31 L 16 35.25 L 14 35.25 Z M 14 31 "/>
</clipPath>
<clipPath id="clip4">
  <path d="M 26 15 L 35.25 15 L 35.25 28 L 26 28 Z M 26 15 "/>
</clipPath>
<clipPath id="clip5">
  <path d="M 13 1.5 L 24 1.5 L 24 16 L 13 16 Z M 13 1.5 "/>
</clipPath>
<clipPath id="clip6">
  <path d="M 1.5 15 L 12 15 L 12 27 L 1.5 27 Z M 1.5 15 "/>
</clipPath>
</defs>
<g id="surface1">
<g clip-path="url(#clip1)" clip-rule="nonzero">
<path style=" stroke:none;fill-rule:nonzero;fill:rgb(0%,15.689087%,20.779419%);fill-opacity:1;" d="M 12.199219 35.25 L 13.320312 35.25 L 13.320312 31.320312 C 13.320312 30.390625 14.078125 29.632812 15.003906 29.632812 L 21.746094 29.632812 C 22.671875 29.632812 23.429688 30.390625 23.429688 31.320312 L 23.429688 35.25 L 24.550781 35.25 L 24.550781 31.320312 C 24.550781 29.769531 23.292969 28.511719 21.746094 28.511719 L 20.878906 28.511719 C 21.414062 27.914062 21.746094 27.128906 21.746094 26.265625 C 21.746094 24.40625 20.234375 22.894531 18.375 22.894531 C 16.515625 22.894531 15.003906 24.40625 15.003906 26.265625 C 15.003906 27.128906 15.335938 27.914062 15.871094 28.511719 L 15.003906 28.511719 C 13.457031 28.511719 12.199219 29.769531 12.199219 31.320312 Z M 18.375 24.019531 C 19.613281 24.019531 20.621094 25.027344 20.621094 26.265625 C 20.621094 27.503906 19.613281 28.511719 18.375 28.511719 C 17.136719 28.511719 16.128906 27.503906 16.128906 26.265625 C 16.128906 25.027344 17.136719 24.019531 18.375 24.019531 Z M 18.375 24.019531 "/>
</g>
<g clip-path="url(#clip2)" clip-rule="nonzero">
<path style=" stroke:none;fill-rule:nonzero;fill:rgb(0%,15.689087%,20.779419%);fill-opacity:1;" d="M 21.183594 31.320312 L 22.304688 31.320312 L 22.304688 35.25 L 21.183594 35.25 Z M 21.183594 31.320312 "/>
</g>
<g clip-path="url(#clip3)" clip-rule="nonzero">
<path style=" stroke:none;fill-rule:nonzero;fill:rgb(0%,15.689087%,20.779419%);fill-opacity:1;" d="M 14.445312 31.320312 L 15.566406 31.320312 L 15.566406 35.25 L 14.445312 35.25 Z M 14.445312 31.320312 "/>
</g>
<path style=" stroke:none;fill-rule:nonzero;fill:rgb(0%,15.689087%,20.779419%);fill-opacity:1;" d="M 30.128906 20.941406 L 29.441406 20.253906 L 28.648438 21.046875 L 29.769531 22.167969 C 29.875 22.273438 30.019531 22.335938 30.167969 22.335938 C 30.175781 22.335938 30.183594 22.335938 30.191406 22.332031 C 30.351562 22.324219 30.496094 22.253906 30.597656 22.132812 L 33.40625 18.761719 L 32.542969 18.042969 Z M 30.128906 20.941406 "/>
<path style=" stroke:none;fill-rule:nonzero;fill:rgb(0%,15.689087%,20.779419%);fill-opacity:1;" d="M 5.984375 20.378906 L 5.292969 19.691406 L 4.5 20.484375 L 5.625 21.609375 C 5.730469 21.714844 5.871094 21.773438 6.019531 21.773438 C 6.027344 21.773438 6.039062 21.773438 6.046875 21.773438 C 6.203125 21.765625 6.351562 21.691406 6.453125 21.570312 L 9.257812 18.199219 L 8.398438 17.480469 Z M 5.984375 20.378906 "/>
<g clip-path="url(#clip4)" clip-rule="nonzero">
<path style=" stroke:none;fill-rule:nonzero;fill:rgb(0%,15.689087%,20.779419%);fill-opacity:1;" d="M 35.222656 16.15625 C 35.222656 15.539062 34.71875 15.035156 34.097656 15.035156 L 27.359375 15.035156 C 26.742188 15.035156 26.238281 15.539062 26.238281 16.15625 L 26.238281 26.265625 C 26.238281 26.882812 26.742188 27.386719 27.359375 27.386719 L 34.097656 27.386719 C 34.71875 27.386719 35.222656 26.882812 35.222656 26.265625 Z M 27.359375 16.15625 L 34.097656 16.15625 L 34.097656 24.019531 L 27.359375 24.019531 Z M 27.359375 26.265625 L 27.359375 25.140625 L 34.097656 25.140625 L 34.097656 26.265625 Z M 27.359375 26.265625 "/>
</g>
<g clip-path="url(#clip5)" clip-rule="nonzero">
<path style=" stroke:none;fill-rule:nonzero;fill:rgb(0%,15.689087%,20.779419%);fill-opacity:1;" d="M 18.804688 1.753906 C 18.589844 1.503906 18.160156 1.503906 17.945312 1.753906 L 17.25 2.578125 C 16.296875 3.699219 15.0625 4.582031 13.675781 5.125 C 13.460938 5.210938 13.320312 5.417969 13.320312 5.648438 L 13.320312 6.679688 C 13.320312 10.050781 15.148438 13.222656 18.089844 14.957031 C 18.179688 15.007812 18.277344 15.035156 18.375 15.035156 C 18.472656 15.035156 18.570312 15.007812 18.660156 14.957031 C 21.601562 13.222656 23.429688 10.050781 23.429688 6.679688 L 23.429688 5.648438 C 23.429688 5.417969 23.289062 5.210938 23.074219 5.125 C 21.691406 4.582031 20.453125 3.699219 19.5 2.578125 Z M 22.304688 6.023438 L 22.304688 6.679688 C 22.304688 9.542969 20.808594 12.246094 18.375 13.8125 C 15.941406 12.246094 14.445312 9.542969 14.445312 6.679688 L 14.445312 6.023438 C 15.855469 5.40625 17.113281 4.46875 18.105469 3.304688 L 18.375 2.984375 L 18.644531 3.300781 C 19.636719 4.46875 20.894531 5.40625 22.304688 6.023438 Z M 22.304688 6.023438 "/>
</g>
<path style=" stroke:none;fill-rule:nonzero;fill:rgb(0%,15.689087%,20.779419%);fill-opacity:1;" d="M 16.410156 7.453125 C 16.410156 7.972656 16.609375 8.457031 16.972656 8.820312 L 16.972656 11.101562 C 16.972656 11.414062 17.222656 11.664062 17.53125 11.664062 L 19.21875 11.664062 C 19.527344 11.664062 19.777344 11.414062 19.777344 11.101562 L 19.777344 8.820312 C 20.140625 8.457031 20.339844 7.972656 20.339844 7.453125 C 20.339844 6.367188 19.457031 5.488281 18.375 5.488281 C 17.292969 5.488281 16.410156 6.367188 16.410156 7.453125 Z M 19.21875 7.453125 C 19.21875 7.714844 19.09375 7.957031 18.878906 8.121094 C 18.738281 8.226562 18.65625 8.394531 18.65625 8.570312 L 18.65625 10.542969 L 18.09375 10.542969 L 18.09375 8.570312 C 18.09375 8.394531 18.011719 8.226562 17.871094 8.121094 C 17.65625 7.957031 17.53125 7.714844 17.53125 7.453125 C 17.53125 6.988281 17.910156 6.609375 18.375 6.609375 C 18.839844 6.609375 19.21875 6.988281 19.21875 7.453125 Z M 19.21875 7.453125 "/>
<path style=" stroke:none;fill-rule:nonzero;fill:rgb(0%,15.689087%,20.779419%);fill-opacity:1;" d="M 25.675781 6.046875 L 26.796875 6.046875 L 26.796875 7.171875 L 25.675781 7.171875 Z M 25.675781 6.046875 "/>
<path style=" stroke:none;fill-rule:nonzero;fill:rgb(0%,15.689087%,20.779419%);fill-opacity:1;" d="M 27.921875 6.046875 L 29.042969 6.046875 L 29.042969 7.171875 L 27.921875 7.171875 Z M 27.921875 6.046875 "/>
<path style=" stroke:none;fill-rule:nonzero;fill:rgb(0%,15.689087%,20.779419%);fill-opacity:1;" d="M 30.167969 6.046875 L 31.289062 6.046875 L 31.289062 7.171875 L 30.167969 7.171875 Z M 30.167969 6.046875 "/>
<path style=" stroke:none;fill-rule:nonzero;fill:rgb(0%,15.689087%,20.779419%);fill-opacity:1;" d="M 30.167969 8.292969 L 31.289062 8.292969 L 31.289062 9.417969 L 30.167969 9.417969 Z M 30.167969 8.292969 "/>
<path style=" stroke:none;fill-rule:nonzero;fill:rgb(0%,15.689087%,20.779419%);fill-opacity:1;" d="M 30.167969 10.542969 L 31.289062 10.542969 L 31.289062 11.664062 L 30.167969 11.664062 Z M 30.167969 10.542969 "/>
<path style=" stroke:none;fill-rule:nonzero;fill:rgb(0%,15.689087%,20.779419%);fill-opacity:1;" d="M 30.167969 12.789062 L 31.289062 12.789062 L 31.289062 13.910156 L 30.167969 13.910156 Z M 30.167969 12.789062 "/>
<path style=" stroke:none;fill-rule:nonzero;fill:rgb(0%,15.689087%,20.779419%);fill-opacity:1;" d="M 9.953125 6.046875 L 11.074219 6.046875 L 11.074219 7.171875 L 9.953125 7.171875 Z M 9.953125 6.046875 "/>
<path style=" stroke:none;fill-rule:nonzero;fill:rgb(0%,15.689087%,20.779419%);fill-opacity:1;" d="M 7.707031 6.046875 L 8.828125 6.046875 L 8.828125 7.171875 L 7.707031 7.171875 Z M 7.707031 6.046875 "/>
<path style=" stroke:none;fill-rule:nonzero;fill:rgb(0%,15.689087%,20.779419%);fill-opacity:1;" d="M 5.460938 6.046875 L 6.582031 6.046875 L 6.582031 7.171875 L 5.460938 7.171875 Z M 5.460938 6.046875 "/>
<path style=" stroke:none;fill-rule:nonzero;fill:rgb(0%,15.689087%,20.779419%);fill-opacity:1;" d="M 5.460938 8.292969 L 6.582031 8.292969 L 6.582031 9.417969 L 5.460938 9.417969 Z M 5.460938 8.292969 "/>
<path style=" stroke:none;fill-rule:nonzero;fill:rgb(0%,15.689087%,20.779419%);fill-opacity:1;" d="M 5.460938 10.542969 L 6.582031 10.542969 L 6.582031 11.664062 L 5.460938 11.664062 Z M 5.460938 10.542969 "/>
<path style=" stroke:none;fill-rule:nonzero;fill:rgb(0%,15.689087%,20.779419%);fill-opacity:1;" d="M 5.460938 12.789062 L 6.582031 12.789062 L 6.582031 13.910156 L 5.460938 13.910156 Z M 5.460938 12.789062 "/>
<path style=" stroke:none;fill-rule:nonzero;fill:rgb(0%,15.689087%,20.779419%);fill-opacity:1;" d="M 30.167969 30.757812 L 31.289062 30.757812 L 31.289062 31.878906 L 30.167969 31.878906 Z M 30.167969 30.757812 "/>
<path style=" stroke:none;fill-rule:nonzero;fill:rgb(0%,15.689087%,20.779419%);fill-opacity:1;" d="M 30.167969 28.511719 L 31.289062 28.511719 L 31.289062 29.632812 L 30.167969 29.632812 Z M 30.167969 28.511719 "/>
<path style=" stroke:none;fill-rule:nonzero;fill:rgb(0%,15.689087%,20.779419%);fill-opacity:1;" d="M 30.167969 33.003906 L 31.289062 33.003906 L 31.289062 34.125 L 30.167969 34.125 Z M 30.167969 33.003906 "/>
<path style=" stroke:none;fill-rule:nonzero;fill:rgb(0%,15.689087%,20.779419%);fill-opacity:1;" d="M 27.921875 33.003906 L 29.042969 33.003906 L 29.042969 34.125 L 27.921875 34.125 Z M 27.921875 33.003906 "/>
<path style=" stroke:none;fill-rule:nonzero;fill:rgb(0%,15.689087%,20.779419%);fill-opacity:1;" d="M 25.675781 33.003906 L 26.796875 33.003906 L 26.796875 34.125 L 25.675781 34.125 Z M 25.675781 33.003906 "/>
<path style=" stroke:none;fill-rule:nonzero;fill:rgb(0%,15.689087%,20.779419%);fill-opacity:1;" d="M 5.460938 30.757812 L 6.582031 30.757812 L 6.582031 31.878906 L 5.460938 31.878906 Z M 5.460938 30.757812 "/>
<path style=" stroke:none;fill-rule:nonzero;fill:rgb(0%,15.689087%,20.779419%);fill-opacity:1;" d="M 5.460938 28.511719 L 6.582031 28.511719 L 6.582031 29.632812 L 5.460938 29.632812 Z M 5.460938 28.511719 "/>
<path style=" stroke:none;fill-rule:nonzero;fill:rgb(0%,15.689087%,20.779419%);fill-opacity:1;" d="M 5.460938 33.003906 L 6.582031 33.003906 L 6.582031 34.125 L 5.460938 34.125 Z M 5.460938 33.003906 "/>
<path style=" stroke:none;fill-rule:nonzero;fill:rgb(0%,15.689087%,20.779419%);fill-opacity:1;" d="M 7.707031 33.003906 L 8.828125 33.003906 L 8.828125 34.125 L 7.707031 34.125 Z M 7.707031 33.003906 "/>
<path style=" stroke:none;fill-rule:nonzero;fill:rgb(0%,15.689087%,20.779419%);fill-opacity:1;" d="M 9.953125 33.003906 L 11.074219 33.003906 L 11.074219 34.125 L 9.953125 34.125 Z M 9.953125 33.003906 "/>
<g clip-path="url(#clip6)" clip-rule="nonzero">
<path style=" stroke:none;fill-rule:nonzero;fill:rgb(0%,15.689087%,20.779419%);fill-opacity:1;" d="M 1.527344 16.15625 L 1.527344 23.457031 C 1.527344 23.765625 1.78125 24.019531 2.089844 24.019531 L 6.019531 24.019531 L 6.019531 25.703125 L 4.335938 25.703125 L 4.335938 26.828125 L 8.828125 26.828125 L 8.828125 25.703125 L 7.144531 25.703125 L 7.144531 24.019531 L 11.074219 24.019531 C 11.382812 24.019531 11.636719 23.765625 11.636719 23.457031 L 11.636719 16.15625 C 11.636719 15.847656 11.382812 15.59375 11.074219 15.59375 L 2.089844 15.59375 C 1.78125 15.59375 1.527344 15.847656 1.527344 16.15625 Z M 2.652344 16.71875 L 10.511719 16.71875 L 10.511719 22.894531 L 2.652344 22.894531 Z M 2.652344 16.71875 "/>
</g>
</g>
</svg>
