<?xml version="1.0" encoding="UTF-8"?>
<svg xmlns="http://www.w3.org/2000/svg" xmlns:xlink="http://www.w3.org/1999/xlink" width="37.5pt" height="37.499999pt" viewBox="0 0 37.5 37.499999" version="1.2">
<defs>
<clipPath id="clip1">
  <path d="M 1 1.699219 L 30 1.699219 L 30 20 L 1 20 Z M 1 1.699219 "/>
</clipPath>
<clipPath id="clip2">
  <path d="M 2 21 L 36.929688 21 L 36.929688 36.949219 L 2 36.949219 Z M 2 21 "/>
</clipPath>
</defs>
<g id="surface1">
<g clip-path="url(#clip1)" clip-rule="nonzero">
<path style=" stroke:none;fill-rule:nonzero;fill:rgb(0%,15.689087%,20.779419%);fill-opacity:1;" d="M 2.59375 19.738281 C 2.734375 19.738281 2.847656 19.683594 2.957031 19.597656 L 5.132812 17.78125 C 5.355469 17.589844 5.382812 17.230469 5.1875 17.011719 C 4.992188 16.789062 4.628906 16.761719 4.40625 16.957031 L 3.683594 17.5625 C 5.464844 10.566406 11.765625 5.582031 19.015625 5.582031 C 22.75 5.582031 26.234375 6.929688 28.996094 9.191406 L 29.804688 8.417969 C 27.292969 6.324219 24.226562 4.976562 20.882812 4.589844 L 20.882812 2.800781 L 21.996094 2.800781 C 22.304688 2.800781 22.554688 2.554688 22.554688 2.25 C 22.554688 1.945312 22.304688 1.699219 21.996094 1.699219 L 15.863281 1.699219 C 15.558594 1.699219 15.308594 1.945312 15.308594 2.25 C 15.308594 2.554688 15.558594 2.800781 15.863281 2.800781 L 16.980469 2.800781 L 16.980469 4.589844 C 10.066406 5.417969 4.238281 10.539062 2.566406 17.453125 L 2.175781 16.40625 C 2.066406 16.128906 1.757812 15.964844 1.453125 16.074219 C 1.171875 16.183594 1.007812 16.488281 1.117188 16.789062 L 2.066406 19.378906 C 2.121094 19.542969 2.261719 19.683594 2.457031 19.710938 C 2.511719 19.738281 2.566406 19.738281 2.59375 19.738281 Z M 18.09375 2.800781 L 19.765625 2.800781 L 19.765625 4.480469 C 19.515625 4.480469 19.265625 4.453125 19.015625 4.453125 C 18.707031 4.453125 18.402344 4.453125 18.09375 4.480469 Z M 18.09375 2.800781 "/>
</g>
<g clip-path="url(#clip2)" clip-rule="nonzero">
<path style=" stroke:none;fill-rule:nonzero;fill:rgb(0%,15.689087%,20.779419%);fill-opacity:1;" d="M 36.742188 24.527344 L 35.796875 21.941406 C 35.742188 21.773438 35.601562 21.636719 35.40625 21.609375 C 35.238281 21.554688 35.042969 21.609375 34.902344 21.71875 L 32.730469 23.539062 C 32.507812 23.730469 32.480469 24.089844 32.675781 24.308594 C 32.871094 24.527344 33.230469 24.554688 33.453125 24.363281 L 34.234375 23.703125 C 32.480469 30.78125 26.152344 35.820312 18.875 35.820312 C 11.40625 35.847656 4.882812 30.476562 3.375 23.070312 C 3.320312 22.765625 3.011719 22.574219 2.707031 22.628906 C 2.398438 22.683594 2.203125 22.988281 2.261719 23.289062 C 3.878906 31.195312 10.875 36.949219 18.875 36.949219 C 26.679688 36.949219 33.484375 31.523438 35.324219 23.921875 C 35.324219 23.921875 35.683594 24.914062 35.683594 24.914062 C 35.796875 25.191406 36.128906 25.355469 36.410156 25.246094 C 36.6875 25.136719 36.855469 24.832031 36.742188 24.527344 Z M 36.742188 24.527344 "/>
</g>
<path style=" stroke:none;fill-rule:nonzero;fill:rgb(0%,15.689087%,20.779419%);fill-opacity:1;" d="M 19.488281 8.832031 L 19.488281 7.207031 C 19.488281 6.902344 19.238281 6.65625 18.929688 6.65625 C 18.625 6.65625 18.375 6.902344 18.375 7.207031 L 18.375 8.832031 C 18.375 9.132812 18.625 9.382812 18.929688 9.382812 C 19.238281 9.382812 19.488281 9.132812 19.488281 8.832031 Z M 19.488281 8.832031 "/>
<path style=" stroke:none;fill-rule:nonzero;fill:rgb(0%,15.689087%,20.779419%);fill-opacity:1;" d="M 13.300781 10.539062 L 12.464844 9.132812 C 12.296875 8.859375 11.960938 8.777344 11.710938 8.941406 C 11.433594 9.105469 11.347656 9.4375 11.515625 9.683594 C 11.515625 9.683594 12.351562 11.089844 12.351562 11.089844 C 12.492188 11.335938 12.855469 11.449219 13.105469 11.28125 C 13.355469 11.144531 13.46875 10.816406 13.300781 10.539062 Z M 13.300781 10.539062 "/>
<path style=" stroke:none;fill-rule:nonzero;fill:rgb(0%,15.689087%,20.779419%);fill-opacity:1;" d="M 9.371094 15.164062 C 9.507812 14.890625 9.425781 14.558594 9.144531 14.421875 L 7.695312 13.597656 C 7.417969 13.457031 7.082031 13.539062 6.945312 13.816406 C 6.804688 14.089844 6.886719 14.421875 7.167969 14.558594 C 7.167969 14.558594 8.617188 15.386719 8.617188 15.386719 C 8.839844 15.523438 9.203125 15.441406 9.371094 15.164062 Z M 9.371094 15.164062 "/>
<path style=" stroke:none;fill-rule:nonzero;fill:rgb(0%,15.689087%,20.779419%);fill-opacity:1;" d="M 7.53125 20.699219 C 7.53125 20.398438 7.277344 20.148438 6.972656 20.148438 L 5.269531 20.148438 C 4.964844 20.148438 4.714844 20.398438 4.714844 20.699219 C 4.714844 21.003906 4.964844 21.25 5.269531 21.25 L 6.972656 21.25 C 7.277344 21.25 7.53125 21.003906 7.53125 20.699219 Z M 7.53125 20.699219 "/>
<path style=" stroke:none;fill-rule:nonzero;fill:rgb(0%,15.689087%,20.779419%);fill-opacity:1;" d="M 6.691406 27.722656 C 6.777344 27.722656 6.886719 27.695312 6.972656 27.640625 L 8.421875 26.816406 C 8.699219 26.675781 8.785156 26.320312 8.644531 26.070312 C 8.503906 25.796875 8.144531 25.714844 7.890625 25.851562 L 6.441406 26.675781 C 6.164062 26.816406 6.078125 27.171875 6.21875 27.421875 C 6.332031 27.613281 6.496094 27.722656 6.691406 27.722656 Z M 6.691406 27.722656 "/>
<path style=" stroke:none;fill-rule:nonzero;fill:rgb(0%,15.689087%,20.779419%);fill-opacity:1;" d="M 12.9375 30.503906 C 12.660156 30.339844 12.324219 30.449219 12.183594 30.699219 L 11.347656 32.101562 C 11.179688 32.378906 11.292969 32.707031 11.542969 32.847656 C 11.792969 33.011719 12.15625 32.902344 12.296875 32.652344 L 13.132812 31.25 C 13.300781 31 13.1875 30.671875 12.9375 30.503906 Z M 12.9375 30.503906 "/>
<path style=" stroke:none;fill-rule:nonzero;fill:rgb(0%,15.689087%,20.779419%);fill-opacity:1;" d="M 18.929688 32.019531 C 18.625 32.019531 18.375 32.265625 18.375 32.570312 L 18.375 34.195312 C 18.375 34.5 18.625 34.746094 18.929688 34.746094 C 19.238281 34.746094 19.488281 34.5 19.488281 34.195312 L 19.488281 32.570312 C 19.488281 32.265625 19.238281 32.019531 18.929688 32.019531 Z M 18.929688 32.019531 "/>
<path style=" stroke:none;fill-rule:nonzero;fill:rgb(0%,15.689087%,20.779419%);fill-opacity:1;" d="M 24.476562 30.503906 C 24.199219 30.671875 24.117188 31 24.285156 31.25 C 24.285156 31.25 25.121094 32.652344 25.121094 32.652344 C 25.257812 32.902344 25.621094 32.984375 25.871094 32.847656 C 26.152344 32.679688 26.234375 32.351562 26.066406 32.101562 L 25.230469 30.699219 C 25.089844 30.449219 24.730469 30.367188 24.476562 30.503906 Z M 24.476562 30.503906 "/>
<path style=" stroke:none;fill-rule:nonzero;fill:rgb(0%,15.689087%,20.779419%);fill-opacity:1;" d="M 28.800781 26.070312 C 28.660156 26.347656 28.742188 26.675781 29.023438 26.816406 C 29.023438 26.816406 30.472656 27.640625 30.472656 27.640625 C 30.722656 27.777344 31.085938 27.695312 31.222656 27.421875 C 31.363281 27.144531 31.28125 26.816406 31 26.675781 L 29.550781 25.851562 C 29.273438 25.714844 28.9375 25.796875 28.800781 26.070312 Z M 28.800781 26.070312 "/>
<path style=" stroke:none;fill-rule:nonzero;fill:rgb(0%,15.689087%,20.779419%);fill-opacity:1;" d="M 33.148438 20.699219 C 33.148438 20.398438 32.898438 20.148438 32.589844 20.148438 L 30.890625 20.148438 C 30.582031 20.148438 30.332031 20.398438 30.332031 20.699219 C 30.332031 21.003906 30.582031 21.25 30.890625 21.25 L 32.589844 21.25 C 32.898438 21.25 33.148438 21.003906 33.148438 20.699219 Z M 33.148438 20.699219 "/>
<path style=" stroke:none;fill-rule:nonzero;fill:rgb(0%,15.689087%,20.779419%);fill-opacity:1;" d="M 29.691406 15.441406 C 29.773438 15.441406 29.886719 15.414062 29.96875 15.359375 L 31.417969 14.53125 C 31.699219 14.394531 31.78125 14.035156 31.644531 13.789062 C 31.503906 13.511719 31.140625 13.429688 30.890625 13.570312 L 29.441406 14.394531 C 29.160156 14.53125 29.078125 14.890625 29.21875 15.136719 C 29.300781 15.359375 29.496094 15.441406 29.691406 15.441406 Z M 29.691406 15.441406 "/>
<path style=" stroke:none;fill-rule:nonzero;fill:rgb(0%,15.689087%,20.779419%);fill-opacity:1;" d="M 25.480469 11.367188 C 25.675781 11.367188 25.871094 11.253906 25.957031 11.089844 L 26.792969 9.683594 C 26.960938 9.410156 26.847656 9.078125 26.597656 8.941406 C 26.316406 8.777344 25.984375 8.886719 25.84375 9.132812 L 25.007812 10.539062 C 24.839844 10.816406 24.953125 11.144531 25.203125 11.28125 C 25.285156 11.367188 25.398438 11.367188 25.480469 11.367188 Z M 25.480469 11.367188 "/>
<path style=" stroke:none;fill-rule:nonzero;fill:rgb(0%,15.689087%,20.779419%);fill-opacity:1;" d="M 31.308594 11.53125 C 32.871094 13.457031 33.984375 15.800781 34.515625 18.359375 C 34.570312 18.664062 34.875 18.855469 35.183594 18.800781 C 35.488281 18.746094 35.683594 18.441406 35.628906 18.140625 C 35.070312 15.359375 33.84375 12.851562 32.144531 10.757812 Z M 31.308594 11.53125 "/>
<path style=" stroke:none;fill-rule:nonzero;fill:rgb(0%,15.689087%,20.779419%);fill-opacity:1;" d="M 16.535156 17.890625 C 16.3125 17.671875 15.949219 17.671875 15.753906 17.890625 C 15.53125 18.113281 15.53125 18.46875 15.753906 18.664062 L 18.539062 21.363281 C 18.652344 21.472656 18.792969 21.527344 18.929688 21.527344 C 19.070312 21.527344 19.210938 21.472656 19.320312 21.363281 L 33.257812 8.144531 C 33.484375 7.921875 33.484375 7.59375 33.289062 7.371094 C 33.0625 7.152344 32.730469 7.152344 32.507812 7.34375 L 18.929688 20.207031 Z M 16.535156 17.890625 "/>
</g>
</svg>
