<?xml version="1.0" encoding="UTF-8"?>
<svg xmlns="http://www.w3.org/2000/svg" xmlns:xlink="http://www.w3.org/1999/xlink" width="37.5pt" height="37.499999pt" viewBox="0 0 37.5 37.499999" version="1.2">
<defs>
<clipPath id="clip1">
  <path d="M 3 1.875 L 33 1.875 L 33 10 L 3 10 Z M 3 1.875 "/>
</clipPath>
<clipPath id="clip2">
  <path d="M 26 26 L 28 26 L 28 37.007812 L 26 37.007812 Z M 26 26 "/>
</clipPath>
<clipPath id="clip3">
  <path d="M 17 29 L 37 29 L 37 37.007812 L 17 37.007812 Z M 17 29 "/>
</clipPath>
<clipPath id="clip4">
  <path d="M 17 28 L 37 28 L 37 37.007812 L 17 37.007812 Z M 17 28 "/>
</clipPath>
<clipPath id="clip5">
  <path d="M 17 15.339844 L 37 15.339844 L 37 21 L 17 21 Z M 17 15.339844 "/>
</clipPath>
</defs>
<g id="surface1">
<path style=" stroke:none;fill-rule:nonzero;fill:rgb(0%,15.689087%,20.779419%);fill-opacity:1;" d="M 3.554688 21.375 L 32.019531 21.375 L 32.019531 13.875 L 3.554688 13.875 Z M 29.023438 15.375 L 30.519531 15.375 L 30.519531 16.875 L 29.023438 16.875 Z M 29.023438 18.375 L 30.519531 18.375 L 30.519531 19.875 L 29.023438 19.875 Z M 26.027344 15.375 L 27.523438 15.375 L 27.523438 16.875 L 26.027344 16.875 Z M 26.027344 18.375 L 27.523438 18.375 L 27.523438 19.875 L 26.027344 19.875 Z M 23.03125 15.375 L 24.527344 15.375 L 24.527344 16.875 L 23.03125 16.875 Z M 23.03125 18.375 L 24.527344 18.375 L 24.527344 19.875 L 23.03125 19.875 Z M 20.035156 15.375 L 21.53125 15.375 L 21.53125 16.875 L 20.035156 16.875 Z M 20.035156 18.375 L 21.53125 18.375 L 21.53125 19.875 L 20.035156 19.875 Z M 13.292969 15.375 C 14.53125 15.375 15.539062 16.382812 15.539062 17.625 C 15.539062 18.867188 14.53125 19.875 13.292969 19.875 C 12.054688 19.875 11.046875 18.867188 11.046875 17.625 C 11.046875 16.382812 12.054688 15.375 13.292969 15.375 Z M 7.300781 15.375 C 8.539062 15.375 9.546875 16.382812 9.546875 17.625 C 9.546875 18.867188 8.539062 19.875 7.300781 19.875 C 6.0625 19.875 5.054688 18.867188 5.054688 17.625 C 5.054688 16.382812 6.0625 15.375 7.300781 15.375 Z M 7.300781 15.375 "/>
<path style=" stroke:none;fill-rule:nonzero;fill:rgb(0%,15.689087%,20.779419%);fill-opacity:1;" d="M 6.550781 10.875 L 29.023438 10.875 L 29.023438 12.375 L 6.550781 12.375 Z M 6.550781 10.875 "/>
<path style=" stroke:none;fill-rule:nonzero;fill:rgb(0%,15.689087%,20.779419%);fill-opacity:1;" d="M 14.042969 29.625 C 14.042969 29.832031 13.96875 30.007812 13.820312 30.15625 C 13.675781 30.300781 13.5 30.375 13.292969 30.375 C 13.085938 30.375 12.910156 30.300781 12.761719 30.15625 C 12.617188 30.007812 12.542969 29.832031 12.542969 29.625 C 12.542969 29.417969 12.617188 29.242188 12.761719 29.09375 C 12.910156 28.949219 13.085938 28.875 13.292969 28.875 C 13.5 28.875 13.675781 28.949219 13.820312 29.09375 C 13.96875 29.242188 14.042969 29.417969 14.042969 29.625 Z M 14.042969 29.625 "/>
<path style=" stroke:none;fill-rule:nonzero;fill:rgb(0%,15.689087%,20.779419%);fill-opacity:1;" d="M 6.550781 22.875 L 29.023438 22.875 L 29.023438 24.375 L 6.550781 24.375 Z M 6.550781 22.875 "/>
<path style=" stroke:none;fill-rule:nonzero;fill:rgb(0%,15.689087%,20.779419%);fill-opacity:1;" d="M 14.042969 17.625 C 14.042969 17.832031 13.96875 18.007812 13.820312 18.15625 C 13.675781 18.300781 13.5 18.375 13.292969 18.375 C 13.085938 18.375 12.910156 18.300781 12.761719 18.15625 C 12.617188 18.007812 12.542969 17.832031 12.542969 17.625 C 12.542969 17.417969 12.617188 17.242188 12.761719 17.09375 C 12.910156 16.949219 13.085938 16.875 13.292969 16.875 C 13.5 16.875 13.675781 16.949219 13.820312 17.09375 C 13.96875 17.242188 14.042969 17.417969 14.042969 17.625 Z M 14.042969 17.625 "/>
<path style=" stroke:none;fill-rule:nonzero;fill:rgb(0%,15.689087%,20.779419%);fill-opacity:1;" d="M 8.050781 17.625 C 8.050781 17.832031 7.976562 18.007812 7.828125 18.15625 C 7.683594 18.300781 7.507812 18.375 7.300781 18.375 C 7.09375 18.375 6.917969 18.300781 6.769531 18.15625 C 6.625 18.007812 6.550781 17.832031 6.550781 17.625 C 6.550781 17.417969 6.625 17.242188 6.769531 17.09375 C 6.917969 16.949219 7.09375 16.875 7.300781 16.875 C 7.507812 16.875 7.683594 16.949219 7.828125 17.09375 C 7.976562 17.242188 8.050781 17.417969 8.050781 17.625 Z M 8.050781 17.625 "/>
<path style=" stroke:none;fill-rule:nonzero;fill:rgb(0%,15.689087%,20.779419%);fill-opacity:1;" d="M 32.019531 25.875 L 3.554688 25.875 L 3.554688 33.375 L 32.019531 33.375 Z M 7.300781 31.875 C 6.0625 31.875 5.054688 30.867188 5.054688 29.625 C 5.054688 28.382812 6.0625 27.375 7.300781 27.375 C 8.539062 27.375 9.546875 28.382812 9.546875 29.625 C 9.546875 30.867188 8.539062 31.875 7.300781 31.875 Z M 13.292969 31.875 C 12.054688 31.875 11.046875 30.867188 11.046875 29.625 C 11.046875 28.382812 12.054688 27.375 13.292969 27.375 C 14.53125 27.375 15.539062 28.382812 15.539062 29.625 C 15.539062 30.867188 14.53125 31.875 13.292969 31.875 Z M 21.53125 31.875 L 20.035156 31.875 L 20.035156 30.375 L 21.53125 30.375 Z M 21.53125 28.875 L 20.035156 28.875 L 20.035156 27.375 L 21.53125 27.375 Z M 24.527344 31.875 L 23.03125 31.875 L 23.03125 30.375 L 24.527344 30.375 Z M 24.527344 28.875 L 23.03125 28.875 L 23.03125 27.375 L 24.527344 27.375 Z M 27.523438 31.875 L 26.027344 31.875 L 26.027344 30.375 L 27.523438 30.375 Z M 27.523438 28.875 L 26.027344 28.875 L 26.027344 27.375 L 27.523438 27.375 Z M 30.519531 31.875 L 29.023438 31.875 L 29.023438 30.375 L 30.519531 30.375 Z M 30.519531 28.875 L 29.023438 28.875 L 29.023438 27.375 L 30.519531 27.375 Z M 30.519531 28.875 "/>
<g clip-path="url(#clip1)" clip-rule="nonzero">
<path style=" stroke:none;fill-rule:nonzero;fill:rgb(0%,15.689087%,20.779419%);fill-opacity:1;" d="M 3.554688 9.375 L 32.019531 9.375 L 32.019531 1.875 L 3.554688 1.875 Z M 29.023438 3.375 L 30.519531 3.375 L 30.519531 4.875 L 29.023438 4.875 Z M 29.023438 6.375 L 30.519531 6.375 L 30.519531 7.875 L 29.023438 7.875 Z M 26.027344 3.375 L 27.523438 3.375 L 27.523438 4.875 L 26.027344 4.875 Z M 26.027344 6.375 L 27.523438 6.375 L 27.523438 7.875 L 26.027344 7.875 Z M 23.03125 3.375 L 24.527344 3.375 L 24.527344 4.875 L 23.03125 4.875 Z M 23.03125 6.375 L 24.527344 6.375 L 24.527344 7.875 L 23.03125 7.875 Z M 20.035156 3.375 L 21.53125 3.375 L 21.53125 4.875 L 20.035156 4.875 Z M 20.035156 6.375 L 21.53125 6.375 L 21.53125 7.875 L 20.035156 7.875 Z M 13.292969 3.375 C 14.53125 3.375 15.539062 4.382812 15.539062 5.625 C 15.539062 6.867188 14.53125 7.875 13.292969 7.875 C 12.054688 7.875 11.046875 6.867188 11.046875 5.625 C 11.046875 4.382812 12.054688 3.375 13.292969 3.375 Z M 7.300781 3.375 C 8.539062 3.375 9.546875 4.382812 9.546875 5.625 C 9.546875 6.867188 8.539062 7.875 7.300781 7.875 C 6.0625 7.875 5.054688 6.867188 5.054688 5.625 C 5.054688 4.382812 6.0625 3.375 7.300781 3.375 Z M 7.300781 3.375 "/>
</g>
<path style=" stroke:none;fill-rule:nonzero;fill:rgb(0%,15.689087%,20.779419%);fill-opacity:1;" d="M 14.042969 5.625 C 14.042969 5.832031 13.96875 6.007812 13.820312 6.15625 C 13.675781 6.300781 13.5 6.375 13.292969 6.375 C 13.085938 6.375 12.910156 6.300781 12.761719 6.15625 C 12.617188 6.007812 12.542969 5.832031 12.542969 5.625 C 12.542969 5.417969 12.617188 5.242188 12.761719 5.09375 C 12.910156 4.949219 13.085938 4.875 13.292969 4.875 C 13.5 4.875 13.675781 4.949219 13.820312 5.09375 C 13.96875 5.242188 14.042969 5.417969 14.042969 5.625 Z M 14.042969 5.625 "/>
<path style=" stroke:none;fill-rule:nonzero;fill:rgb(0%,15.689087%,20.779419%);fill-opacity:1;" d="M 8.050781 5.625 C 8.050781 5.832031 7.976562 6.007812 7.828125 6.15625 C 7.683594 6.300781 7.507812 6.375 7.300781 6.375 C 7.09375 6.375 6.917969 6.300781 6.769531 6.15625 C 6.625 6.007812 6.550781 5.832031 6.550781 5.625 C 6.550781 5.417969 6.625 5.242188 6.769531 5.09375 C 6.917969 4.949219 7.09375 4.875 7.300781 4.875 C 7.507812 4.875 7.683594 4.949219 7.828125 5.09375 C 7.976562 5.242188 8.050781 5.417969 8.050781 5.625 Z M 8.050781 5.625 "/>
<path style=" stroke:none;fill-rule:nonzero;fill:rgb(0%,15.689087%,20.779419%);fill-opacity:1;" d="M 8.050781 29.625 C 8.050781 29.832031 7.976562 30.007812 7.828125 30.15625 C 7.683594 30.300781 7.507812 30.375 7.300781 30.375 C 7.09375 30.375 6.917969 30.300781 6.769531 30.15625 C 6.625 30.007812 6.550781 29.832031 6.550781 29.625 C 6.550781 29.417969 6.625 29.242188 6.769531 29.09375 C 6.917969 28.949219 7.09375 28.875 7.300781 28.875 C 7.507812 28.875 7.683594 28.949219 7.828125 29.09375 C 7.976562 29.242188 8.050781 29.417969 8.050781 29.625 Z M 8.050781 29.625 "/>
<g clip-path="url(#clip2)" clip-rule="nonzero">
<path style=" stroke:none;fill-rule:nonzero;fill:rgb(0%,15.689087%,20.779419%);fill-opacity:1;" d="M 26.355469 44.652344 L 26.355469 26.425781 L 27.359375 26.425781 L 27.359375 44.652344 L 26.355469 44.652344 "/>
</g>
<g clip-path="url(#clip3)" clip-rule="nonzero">
<path style=" stroke:none;fill-rule:nonzero;fill:rgb(0%,15.689087%,20.779419%);fill-opacity:1;" d="M 26.855469 37.226562 C 23.585938 37.226562 20.292969 36.496094 17.320312 35.113281 L 17.320312 29.578125 C 17.976562 30.113281 19.082031 30.484375 20.035156 30.726562 C 21.886719 31.1875 24.308594 31.445312 26.851562 31.445312 C 29.417969 31.445312 31.851562 31.183594 33.710938 30.714844 C 34.65625 30.476562 35.746094 30.105469 36.394531 29.570312 L 36.394531 35.113281 C 33.421875 36.496094 30.128906 37.226562 26.855469 37.226562 "/>
</g>
<g clip-path="url(#clip4)" clip-rule="nonzero">
<path style=" stroke:none;fill-rule:nonzero;fill:rgb(100%,100%,100%);fill-opacity:1;" d="M 36.675781 28.675781 C 36.675781 28.675781 36.675781 28.679688 36.675781 28.679688 C 36.417969 30.0625 32.121094 31.160156 26.851562 31.160156 C 21.625 31.160156 17.355469 30.078125 17.035156 28.710938 C 17.035156 30.902344 17.035156 33.101562 17.035156 35.292969 C 20.144531 36.773438 23.5 37.511719 26.855469 37.511719 C 30.210938 37.511719 33.566406 36.773438 36.675781 35.292969 C 36.675781 33.085938 36.675781 30.882812 36.675781 28.675781 Z M 36.109375 30.113281 L 36.109375 34.929688 C 33.21875 36.246094 30.027344 36.9375 26.855469 36.9375 C 23.6875 36.9375 20.496094 36.246094 17.601562 34.925781 L 17.601562 30.117188 C 18.175781 30.457031 18.964844 30.75 19.964844 31.003906 C 21.839844 31.472656 24.285156 31.730469 26.851562 31.730469 C 29.4375 31.730469 31.898438 31.46875 33.78125 30.992188 C 34.765625 30.742188 35.542969 30.449219 36.109375 30.113281 "/>
</g>
<path style=" stroke:none;fill-rule:nonzero;fill:rgb(0%,15.689087%,20.779419%);fill-opacity:1;" d="M 26.855469 31.542969 C 23.585938 31.542969 20.292969 30.8125 17.320312 29.425781 L 17.320312 23.894531 C 17.976562 24.433594 19.082031 24.804688 20.035156 25.042969 C 21.886719 25.507812 24.308594 25.761719 26.851562 25.761719 C 29.417969 25.761719 31.851562 25.503906 33.710938 25.03125 C 34.65625 24.792969 35.746094 24.421875 36.394531 23.886719 L 36.394531 29.425781 C 33.421875 30.8125 30.128906 31.542969 26.855469 31.542969 "/>
<path style=" stroke:none;fill-rule:nonzero;fill:rgb(100%,100%,100%);fill-opacity:1;" d="M 36.675781 22.996094 C 36.417969 24.378906 32.121094 25.476562 26.851562 25.476562 C 21.625 25.476562 17.355469 24.394531 17.035156 23.03125 C 17.035156 25.222656 17.035156 27.417969 17.035156 29.609375 C 20.144531 31.089844 23.5 31.828125 26.855469 31.828125 C 30.210938 31.828125 33.566406 31.089844 36.675781 29.609375 C 36.675781 27.40625 36.675781 25.199219 36.675781 22.996094 Z M 36.109375 24.429688 L 36.109375 29.242188 C 33.21875 30.5625 30.027344 31.257812 26.855469 31.257812 C 23.6875 31.257812 20.496094 30.5625 17.601562 29.242188 L 17.601562 24.433594 C 18.175781 24.773438 18.96875 25.070312 19.96875 25.320312 C 21.84375 25.789062 24.285156 26.046875 26.851562 26.046875 C 29.4375 26.046875 31.898438 25.785156 33.78125 25.308594 C 34.765625 25.058594 35.542969 24.765625 36.109375 24.429688 "/>
<path style=" stroke:none;fill-rule:nonzero;fill:rgb(0%,15.689087%,20.779419%);fill-opacity:1;" d="M 26.855469 26.324219 C 23.585938 26.324219 20.292969 25.59375 17.320312 24.210938 L 17.320312 18.675781 C 17.976562 19.214844 19.082031 19.585938 20.035156 19.824219 C 21.886719 20.289062 24.308594 20.542969 26.851562 20.542969 C 29.417969 20.542969 31.851562 20.285156 33.710938 19.816406 C 34.65625 19.574219 35.746094 19.203125 36.394531 18.667969 L 36.394531 24.210938 C 33.421875 25.59375 30.128906 26.324219 26.855469 26.324219 "/>
<path style=" stroke:none;fill-rule:nonzero;fill:rgb(100%,100%,100%);fill-opacity:1;" d="M 36.675781 17.777344 C 36.675781 17.78125 36.675781 17.78125 36.675781 17.78125 C 36.417969 19.160156 32.121094 20.257812 26.851562 20.257812 C 21.625 20.257812 17.355469 19.175781 17.035156 17.8125 C 17.035156 20.007812 17.035156 22.203125 17.035156 24.394531 C 20.144531 25.871094 23.5 26.609375 26.855469 26.609375 C 30.210938 26.609375 33.566406 25.871094 36.675781 24.394531 C 36.675781 22.1875 36.675781 19.984375 36.675781 17.777344 Z M 36.109375 19.210938 L 36.109375 24.027344 C 33.21875 25.34375 30.027344 26.039062 26.855469 26.039062 C 23.6875 26.039062 20.496094 25.34375 17.601562 24.027344 L 17.601562 19.21875 C 18.175781 19.558594 18.96875 19.851562 19.96875 20.101562 C 21.84375 20.570312 24.285156 20.832031 26.851562 20.832031 C 29.4375 20.832031 31.898438 20.570312 33.78125 20.09375 C 34.765625 19.84375 35.542969 19.546875 36.109375 19.210938 "/>
<g clip-path="url(#clip5)" clip-rule="nonzero">
<path style=" stroke:none;fill-rule:nonzero;fill:rgb(0%,15.689087%,20.779419%);fill-opacity:1;" d="M 26.855469 20.269531 C 24.253906 20.269531 21.808594 20.003906 19.972656 19.515625 C 18.007812 18.992188 17.304688 18.363281 17.304688 17.949219 C 17.304688 17.53125 18.007812 16.902344 19.972656 16.378906 C 21.808594 15.894531 24.253906 15.625 26.855469 15.625 C 29.460938 15.625 31.902344 15.894531 33.738281 16.378906 C 35.707031 16.902344 36.410156 17.53125 36.410156 17.949219 C 36.410156 18.363281 35.707031 18.992188 33.738281 19.515625 C 31.90625 20.003906 29.460938 20.269531 26.855469 20.269531 "/>
<path style=" stroke:none;fill-rule:nonzero;fill:rgb(100%,100%,100%);fill-opacity:1;" d="M 26.855469 15.339844 C 21.425781 15.339844 17.023438 16.507812 17.023438 17.949219 C 17.023438 19.390625 21.425781 20.554688 26.855469 20.554688 C 32.289062 20.554688 36.691406 19.390625 36.691406 17.949219 C 36.691406 16.507812 32.289062 15.339844 26.855469 15.339844 Z M 26.855469 15.910156 C 29.4375 15.910156 31.855469 16.175781 33.667969 16.65625 C 35.457031 17.132812 36.125 17.699219 36.125 17.949219 C 36.125 18.195312 35.457031 18.765625 33.667969 19.238281 C 31.855469 19.71875 29.4375 19.984375 26.855469 19.984375 C 24.277344 19.984375 21.859375 19.71875 20.046875 19.238281 C 18.253906 18.765625 17.589844 18.195312 17.589844 17.949219 C 17.589844 17.699219 18.253906 17.132812 20.046875 16.65625 C 21.859375 16.175781 24.277344 15.910156 26.855469 15.910156 "/>
</g>
<path style=" stroke:none;fill-rule:nonzero;fill:rgb(100%,100%,100%);fill-opacity:1;" d="M 33.574219 17.949219 C 33.574219 18.726562 30.566406 19.355469 26.855469 19.355469 C 23.148438 19.355469 20.140625 18.726562 20.140625 17.949219 C 20.140625 17.171875 23.148438 16.542969 26.855469 16.542969 C 30.566406 16.542969 33.574219 17.171875 33.574219 17.949219 "/>
</g>
</svg>
